<?xml version="1.0" encoding="UTF-8"?>
<svg version="1.1" xmlns="http://www.w3.org/2000/svg" width="1408" height="768">
<path d="M0 0 C464.64 0 929.28 0 1408 0 C1408 253.44 1408 506.88 1408 768 C943.36 768 478.72 768 0 768 C0 514.56 0 261.12 0 0 Z " fill="#FEFEFE" transform="translate(0,0)"/>
<path d="M0 0 C0.66 0.33 1.32 0.66 2 1 C1.41992188 1.80050781 1.41992188 1.80050781 0.828125 2.6171875 C-7.46410406 14.48082215 -9.4340133 24.68183216 -8 39 C-6.39214543 47.62913663 -2.38576725 54.18511468 3 61 C3.62519531 61.83144531 4.25039063 62.66289062 4.89453125 63.51953125 C18.04258181 79.00934962 40.61407345 86.24592961 59 93 C60.15661133 93.42490723 61.31322266 93.84981445 62.50488281 94.28759766 C78.65045841 100.19473412 78.65045841 100.19473412 95 105.5 C125.26224526 114.73692865 158.99363367 125.46487726 183 147 C183.680625 147.5878125 184.36125 148.175625 185.0625 148.78125 C196.52867066 159.35162608 204.38336068 174.94143171 208.8125 189.6875 C209.0197168 190.37626221 209.22693359 191.06502441 209.44042969 191.7746582 C216.43311987 216.52323918 211.42177142 243.26689274 199.37548828 265.53515625 C189.61916359 282.47441134 174.39299345 293.96050401 158 304 C158 300.47283994 158.55460963 300.04045046 160.75 297.4375 C169.16999043 286.62885981 170.03160573 273.77266964 168.76171875 260.51171875 C166.09796887 245.79382801 156.54938338 234.96175237 144.66870117 226.6574707 C121.35387134 211.00803983 93.19328262 202.8938728 66.73706055 194.22053528 C-19.04778953 166.05210946 -19.04778953 166.05210946 -40.34912109 125.97998047 C-44.21430738 118.10931445 -46.16630142 109.53448535 -48 101 C-48.17885742 100.19159668 -48.35771484 99.38319336 -48.54199219 98.55029297 C-52.95552356 73.97473394 -45.0853106 49.94485513 -31.453125 29.703125 C-22.81336025 17.98384014 -11.7186755 8.49651922 0 0 Z " fill="#13233B" transform="translate(623,187)"/>
<path d="M0 0 C0.64001953 0.49306641 0.64001953 0.49306641 1.29296875 0.99609375 C21.88382059 16.6621233 41.66752535 27.3673517 67 33 C67.77537109 33.176521 68.55074219 33.35304199 69.34960938 33.53491211 C87.88166151 36.78689805 108.25159925 34.1971924 125.51245117 27.06982422 C130.80873159 24.898661 135.47060207 22.99616583 140.9921875 25.1875 C154.77653169 33.85407954 164.40317572 41.81841566 170.25 57.3125 C172.87931639 70.23997224 169.50518296 80.84180422 163 92 C151.5340106 108.88366939 130.25013752 112.88473438 111.55615234 116.53027344 C84.87767479 121.43279405 55.74134664 118.0208935 30 110 C28.81059814 109.63696777 28.81059814 109.63696777 27.59716797 109.26660156 C-0.86940295 100.43156038 -35.63347912 83.53900129 -53 58 C-51.35362107 53.95711682 -48.512264 51.06527899 -45.5625 47.9375 C-45.03116455 47.36749268 -44.4998291 46.79748535 -43.95239258 46.21020508 C-39.55753362 41.52361448 -35.01812275 36.99723119 -30.44921875 32.48046875 C-27.78845868 29.78575959 -25.33010798 26.97378052 -22.875 24.09375 C-20.51654957 21.46014702 -18.01556809 18.98171119 -15.5 16.5 C-11.63833124 12.68076716 -7.94849605 8.79922534 -4.4375 4.65625 C-3.02363605 3.02723284 -1.54302144 1.50628283 0 0 Z " fill="#14233A" transform="translate(613,390)"/>
<path d="M0 0 C0.59184082 0.39123047 1.18368164 0.78246094 1.79345703 1.18554688 C11.80356633 7.81300564 20.40369167 15.64448462 29 24 C27.26998822 27.71675712 25.15336798 30.02029649 22.1875 32.875 C18.09368365 36.86168468 18.09368365 36.86168468 14.375 41.1875 C12.43515588 43.48468383 10.6531084 45.20973548 8.375 47.125 C4.52016193 50.41588954 1.17497625 54.02504716 -2.20483398 57.79638672 C-9.48020679 65.83713123 -17.29351383 73.37626975 -25 81 C-27.62939522 79.75210904 -29.93876564 78.41056394 -32.25 76.64453125 C-32.85199219 76.19037842 -33.45398438 75.73622559 -34.07421875 75.26831055 C-34.70972656 74.78789307 -35.34523438 74.30747559 -36 73.8125 C-47.05212782 65.62093863 -58.14770188 59.79892676 -71 55 C-71.65331299 54.74307373 -72.30662598 54.48614746 -72.97973633 54.22143555 C-97.21222931 44.78973191 -126.40537928 46.30443755 -150.03540039 56.54638672 C-151.74535509 57.31660387 -153.43252246 58.13687243 -155.1171875 58.9609375 C-158.41535982 60.14970964 -159.71961761 60.1315243 -163 59 C-177.27651209 52.12763888 -188.92864413 42.61272266 -194.9375 27.6875 C-197.79794878 17.69380707 -196.77290482 7.16829174 -192 -2 C-183.15336663 -16.83951404 -169.58619288 -25.13833895 -153.25 -29.8125 C-151.50578045 -30.23307365 -149.75552688 -30.62944717 -148 -31 C-147.09765625 -31.19207031 -146.1953125 -31.38414062 -145.265625 -31.58203125 C-95.78388419 -41.2966668 -41.39110863 -28.13658987 0 0 Z " fill="#14233A" transform="translate(819,201)"/>
<path d="M0 0 C4.90875 -0.0825 9.8175 -0.165 14.875 -0.25 C16.40237793 -0.28641602 17.92975586 -0.32283203 19.50341797 -0.36035156 C27.99438642 -0.42910434 36.41760549 -0.30249258 42.95849609 5.83886719 C47.28498821 10.65661701 48.1903924 13.69475016 48.3125 20.25 C48.36857422 22.20679688 48.36857422 22.20679688 48.42578125 24.203125 C47.75789739 30.15893333 44.45305968 34.14068161 40 38 C39.34 38 38.68 38 38 38 C41.32246214 43.74950895 44.74904291 49.21418703 48.8984375 54.40625 C50 56 50 56 50 58 C45.17310373 58.67115552 40.8021121 58.9377515 36 58 C30.90446843 53.61301868 28.46100382 48.15250956 26 42 C22.04 42 18.08 42 14 42 C14 47.28 14 52.56 14 58 C9.38 58 4.76 58 0 58 C0 38.86 0 19.72 0 0 Z " fill="#1E2C41" transform="translate(539,543)"/>
<path d="M0 0 C11 0 11 0 15.0625 3.6875 C16.40602737 5.43490984 17.71579256 7.208543 19 9 C20.23948474 10.59959186 21.47918341 12.1990284 22.72436523 13.79418945 C23.93329751 15.35157187 25.12348103 16.92345548 26.3125 18.49609375 C29.80614933 23.05104063 33.4139497 27.51743712 37 32 C37.33 21.44 37.66 10.88 38 0 C42.62 0 47.24 0 52 0 C52 19.14 52 38.28 52 58 C41 58 41 58 38.4140625 56.41015625 C37.82367187 55.63542969 37.23328125 54.86070312 36.625 54.0625 C35.55378906 52.71091797 35.55378906 52.71091797 34.4609375 51.33203125 C33.64050357 50.22144386 32.82020405 49.11075717 32 48 C30.91168612 46.58505685 29.82033805 45.17244419 28.7265625 43.76171875 C25.99290636 40.22483545 23.29396652 36.66383361 20.61816406 33.08300781 C18.48187119 30.33303032 16.22928749 27.67514499 14 25 C13.67 35.89 13.34 46.78 13 58 C8.71 58 4.42 58 0 58 C0 38.86 0 19.72 0 0 Z " fill="#18263B" transform="translate(703,543)"/>
<path d="M0 0 C4.46034405 0.31655318 7.67398922 1.65012043 11.52734375 3.84375 C12.56012451 4.42648682 13.59290527 5.00922363 14.65698242 5.60961914 C15.73955322 6.23344482 16.82212402 6.85727051 17.9375 7.5 C19.05036377 8.13349365 20.16322754 8.7669873 21.30981445 9.41967773 C24.54664221 11.26831983 27.77484298 13.13108676 31 15 C31.83595703 15.48227051 32.67191406 15.96454102 33.53320312 16.46142578 C40.07780488 20.25048108 46.26895625 24.0422605 52 29 C51.684171 32.0058098 51.43854127 33.57448891 49.23339844 35.71411133 C48.4499707 36.2273999 47.66654297 36.74068848 46.859375 37.26953125 C45.95380859 37.86459473 45.04824219 38.4596582 44.11523438 39.07275391 C38.22146983 42.71894335 32.25330702 46.22533543 26.25 49.6875 C24.30943885 50.8103328 22.36966267 51.93448041 20.43109131 53.06074524 C18.68381796 54.07534536 16.93426567 55.08601795 15.18457031 56.09643555 C13.00835531 57.39725956 10.87743132 58.77614433 8.79199219 60.21801758 C5.53769446 62.29506542 3.79100707 62.51695551 0 62 C-2.64015811 59.35984189 -2.25304253 58.16377491 -2.25878906 54.48046875 C-2.26509338 53.32587158 -2.27139771 52.17127441 -2.27789307 50.98168945 C-2.2738446 49.72960693 -2.26979614 48.47752441 -2.265625 47.1875 C-2.26753845 45.90770264 -2.2694519 44.62790527 -2.27142334 43.30932617 C-2.27437382 40.59907207 -2.27007955 37.88894973 -2.26074219 35.17871094 C-2.24934753 31.70150769 -2.25590743 28.22461318 -2.26788712 24.74742126 C-2.27684425 21.43575596 -2.27057635 18.12417409 -2.265625 14.8125 C-2.26967346 13.56041748 -2.27372192 12.30833496 -2.27789307 11.01831055 C-2.27158875 9.86371338 -2.26528442 8.70911621 -2.25878906 7.51953125 C-2.25719788 6.49964111 -2.25560669 5.47975098 -2.25396729 4.42895508 C-2 2 -2 2 0 0 Z " fill="#FBFCFC" transform="translate(685,302)"/>
<path d="M0 0 C4.62 0 9.24 0 14 0 C20.8379231 15.0833603 27.66968144 30.16960876 34.375 45.3125 C34.84462158 46.36622803 35.31424316 47.41995605 35.7980957 48.50561523 C36.43557739 49.95109741 36.43557739 49.95109741 37.0859375 51.42578125 C37.6435376 52.68515503 37.6435376 52.68515503 38.21240234 53.9699707 C39 56 39 56 39 58 C34.38 58 29.76 58 25 58 C23.35 54.37 21.7 50.74 20 47 C11.09 46.67 2.18 46.34 -7 46 C-7.66 48.97 -8.32 51.94 -9 55 C-9.66 55.99 -10.32 56.98 -11 58 C-14.0390625 58.29296875 -14.0390625 58.29296875 -17.625 58.1875 C-18.81351563 58.16042969 -20.00203125 58.13335938 -21.2265625 58.10546875 C-22.14179687 58.07066406 -23.05703125 58.03585937 -24 58 C-21.92640997 51.37161724 -19.40328494 45.03183992 -16.62109375 38.671875 C-16.20835709 37.71984192 -15.79562042 36.76780884 -15.37037659 35.78692627 C-14.06296922 32.77306016 -12.75043055 29.76146357 -11.4375 26.75 C-10.12208267 23.72379371 -8.80772833 20.69712861 -7.49391174 17.67022705 C-6.67927156 15.79435409 -5.86351557 13.9189652 -5.04649353 12.04412842 C-4.67593338 11.19264221 -4.30537323 10.34115601 -3.92358398 9.46386719 C-3.59954086 8.72046082 -3.27549774 7.97705444 -2.94163513 7.21112061 C-1.92448333 4.82267393 -0.96413444 2.41033609 0 0 Z " fill="#132134" transform="translate(835,543)"/>
<path d="M0 0 C14.19 0 28.38 0 43 0 C43 3.63 43 7.26 43 11 C33.43 11 23.86 11 14 11 C14 14.96 14 18.92 14 23 C22.25 23 30.5 23 39 23 C39 26.63 39 30.26 39 34 C30.75 34 22.5 34 14 34 C14 37.96 14 41.92 14 46 C23.9 46 33.8 46 44 46 C44 49.96 44 53.92 44 58 C29.48 58 14.96 58 0 58 C0 38.86 0 19.72 0 0 Z " fill="#1D2A3E" transform="translate(597,543)"/>
<path d="M0 0 C13.86 0 27.72 0 42 0 C42 3.63 42 7.26 42 11 C32.43 11 22.86 11 13 11 C13 14.96 13 18.92 13 23 C21.58 23 30.16 23 39 23 C39 26.63 39 30.26 39 34 C30.75 34 22.5 34 14 34 C14 37.96 14 41.92 14 46 C23.9 46 33.8 46 44 46 C44 49.63 44 53.26 44 57 C43 58 43 58 41.24729919 58.12025452 C40.48562943 58.11803391 39.72395966 58.11581329 38.93920898 58.11352539 C38.06631226 58.11340454 37.19341553 58.11328369 36.29406738 58.11315918 C34.90907043 58.10548523 34.90907043 58.10548523 33.49609375 58.09765625 C32.6517981 58.09664917 31.80750244 58.09564209 30.93762207 58.09460449 C27.77090098 58.0893557 24.60419919 58.07539456 21.4375 58.0625 C14.363125 58.041875 7.28875 58.02125 0 58 C0 38.86 0 19.72 0 0 Z " fill="#233043" transform="translate(650,543)"/>
<path d="M0 0 C2.65254884 1.5388833 4.50437627 3.22231904 6.55859375 5.484375 C5.00358394 9.30121726 2.5226388 11.67633232 -0.44140625 14.484375 C-0.95703125 14.21625 -1.47265625 13.948125 -2.00390625 13.671875 C-2.80828125 13.28 -3.61265625 12.888125 -4.44140625 12.484375 C-5.47265625 11.948125 -6.50390625 11.411875 -7.56640625 10.859375 C-12.12029039 8.94968165 -16.58382949 8.78469093 -21.44140625 9.484375 C-26.89403457 11.95348971 -30.17004619 16.0234455 -32.44140625 21.484375 C-33.57718418 27.14351197 -32.44956339 31.77836477 -29.65234375 36.7578125 C-27.174556 40.29065825 -24.48372178 42.13693649 -20.44140625 43.484375 C-15.11161225 43.6620348 -10.84071057 43.25570419 -5.44140625 42.484375 C-5.44140625 36.874375 -5.44140625 31.264375 -5.44140625 25.484375 C-1.48140625 25.484375 2.47859375 25.484375 6.55859375 25.484375 C6.55859375 33.404375 6.55859375 41.324375 6.55859375 49.484375 C-5.09521331 55.31127853 -15.7425406 57.99411774 -28.671875 54.6484375 C-36.61305763 50.97948801 -42.54774478 44.19232449 -45.78125 36.1015625 C-47.75734874 28.26732491 -47.60261957 19.71515118 -43.7578125 12.5078125 C-33.54315919 -3.19304926 -17.09340595 -7.51460452 0 0 Z " fill="#142237" transform="translate(921.44140625,545.515625)"/>
<path d="M0 0 C13.86 0 27.72 0 42 0 C42 3.63 42 7.26 42 11 C32.43 11 22.86 11 13 11 C13 14.96 13 18.92 13 23 C21.58 23 30.16 23 39 23 C39 26.63 39 30.26 39 34 C30.42 34 21.84 34 13 34 C13 38.29 13 42.58 13 47 C22.9 47 32.8 47 43 47 C43 50.3 43 53.6 43 57 C28.81 57 14.62 57 0 57 C0 38.19 0 19.38 0 0 Z " fill="#18263B" transform="translate(939,543)"/>
<path d="M0 0 C-0.75 6.625 -0.75 6.625 -3 10 C-3.59425781 9.7834375 -4.18851562 9.566875 -4.80078125 9.34375 C-11.11779269 7.22170572 -17.33372287 5.91380149 -24 7 C-26.28443611 8.4225716 -26.28443611 8.4225716 -28 10 C-27.96906827 12.41585574 -27.96906827 12.41585574 -27 15 C-22.85101314 17.44858241 -18.70714807 18.74169558 -14.0625 19.9375 C-7.75330708 21.69449043 -2.64661945 23.18263091 1.9375 28.0625 C3.8148947 33.25294417 3.97823304 38.82656544 2.34375 44.12890625 C-0.07503401 48.95604848 -3.2965059 50.81623488 -8 53 C-16.30956694 55.49442715 -28.56513992 55.66476345 -36.5 52.125 C-38.40625 51.0703125 -38.40625 51.0703125 -40 50 C-40.99 49.34 -41.98 48.68 -43 48 C-42.60404157 46.51515588 -42.18249294 45.0371169 -41.75 43.5625 C-41.51796875 42.73878906 -41.2859375 41.91507813 -41.046875 41.06640625 C-40 39 -40 39 -38.046875 38.12890625 C-35.04803652 37.9400481 -33.47361261 39.39215181 -31 41 C-27.50568605 42.18040583 -24.10432913 42.16664204 -20.4375 42.1875 C-19.30183594 42.20167969 -18.16617187 42.21585938 -16.99609375 42.23046875 C-13.8175557 42.23171839 -13.8175557 42.23171839 -11 40 C-10.74969023 37.41619823 -10.74969023 37.41619823 -11 35 C-16.51123487 32.66114637 -21.98323598 30.68460928 -27.75 29.0625 C-33.92844465 27.19950609 -37.97473971 25.40611958 -41.375 19.6875 C-42.63554668 14.26714927 -42.59085013 10.48996989 -40.5625 5.375 C-37.53944573 0.6508005 -32.35716778 -2.86047354 -27.078125 -4.65234375 C-17.73261922 -6.21578363 -7.93016848 -5.45199083 0 0 Z " fill="#162438" transform="translate(469,547)"/>
<path d="M0 0 C-0.39595843 1.48484412 -0.81750706 2.9628831 -1.25 4.4375 C-1.48203125 5.26121094 -1.7140625 6.08492187 -1.953125 6.93359375 C-3 9 -3 9 -4.87890625 9.875 C-7.84303966 10.0496819 -10.07699232 8.81126762 -12.77734375 7.7109375 C-17.21076882 6.29286481 -21.99007563 6.09553403 -26.265625 8.01953125 C-26.83796875 8.34308594 -27.4103125 8.66664063 -28 9 C-28 10.98 -28 12.96 -28 15 C-22.36925344 17.53604121 -16.7288954 19.36777389 -10.78515625 21.01757812 C-5.62818576 22.5410044 -1.76341551 24.37625147 1.2890625 28.91796875 C2.9282331 33.71839694 2.82651328 39.29774701 1.34765625 44.1328125 C-1.08401974 48.95441897 -4.29356352 50.81486878 -9 53 C-18.2994293 55.76908657 -30.4209271 55.22812995 -39.15234375 51.0703125 C-40.80742506 50.11155504 -42.40851811 49.06098793 -44 48 C-42.8905928 44.51329166 -41.73662334 41.22515763 -40 38 C-37.36583011 38.52683398 -35.51728113 39.26234721 -33.125 40.5625 C-27.54002314 43.05013161 -20.96815103 42.57732114 -15 42 C-14.01 41.34 -13.02 40.68 -12 40 C-11.74969023 37.41619823 -11.74969023 37.41619823 -12 35 C-16.44559384 32.93228193 -20.84887041 31.42697172 -25.5625 30.0625 C-33.14968169 27.75940361 -38.614784 24.83577788 -43 18 C-44.14109189 13.03993122 -43.39076623 9.07375476 -40.875 4.6875 C-31.18009652 -9.0492224 -13.19626954 -6.75978173 0 0 Z " fill="#152338" transform="translate(807,547)"/>
<path d="M0 0 C3.47822685 2.06453036 5.35148461 4.14022637 7.546875 7.51171875 C6.47971428 8.71377339 5.39249163 9.89804208 4.296875 11.07421875 C3.69359375 11.73550781 3.0903125 12.39679687 2.46875 13.078125 C0.546875 14.51171875 0.546875 14.51171875 -1.55859375 14.3203125 C-3.81717747 13.35633966 -5.51614954 12.01131265 -7.453125 10.51171875 C-12.31987252 8.88946958 -17.57998903 8.61183088 -22.5234375 10.16015625 C-26.30765347 12.07683707 -28.91035897 14.6549688 -30.79296875 18.4609375 C-32.59767528 24.06727435 -32.19869745 29.55382117 -29.765625 34.88671875 C-27.25765433 39.2890077 -24.29111788 41.89905446 -19.453125 43.51171875 C-11.58970748 44.17811007 -6.89877279 41.80881728 -0.453125 37.51171875 C2.186875 39.82171875 4.826875 42.13171875 7.546875 44.51171875 C4.79117598 50.02311679 1.13208213 52.94929045 -4.7578125 54.96484375 C-13.88980835 56.81771247 -24.20750356 57.04209246 -32.37109375 52.1328125 C-39.25764551 46.77086319 -44.00001442 40.20532859 -45.453125 31.51171875 C-46.37265937 21.48879413 -45.01990313 14.57307882 -38.94921875 6.515625 C-28.53660583 -5.15151959 -13.67870337 -6.31463952 0 0 Z " fill="#152337" transform="translate(523.453125,545.48828125)"/>
<path d="M0 0 C1.98 0.495 1.98 0.495 4 1 C4.16789126 3.43742131 4.33436133 5.87492546 4.5 8.3125 C4.54769531 9.00279297 4.59539063 9.69308594 4.64453125 10.40429688 C5.28734035 19.90868857 5 29.47583845 5 39 C6.98 38.505 6.98 38.505 9 38 C9 36.35 9 34.7 9 33 C9.99 32.505 9.99 32.505 11 32 C11 36.62 11 41.24 11 46 C20.9 46 30.8 46 41 46 C41 49.3 41 52.6 41 56 C27.14 56 13.28 56 -1 56 C-0.67 37.52 -0.34 19.04 0 0 Z " fill="#09172C" transform="translate(652,544)"/>
<path d="M0 0 C4.62 0 9.24 0 14 0 C19.20961538 10.29519231 19.20961538 10.29519231 18.1484375 13.86328125 C17.76945313 14.56839844 17.39046875 15.27351562 17 16 C16.443125 15.855625 15.88625 15.71125 15.3125 15.5625 C12.88612396 14.97230042 10.44961731 14.48342365 8 14 C8.21205078 14.52956299 8.42410156 15.05912598 8.64257812 15.60473633 C9.600361 18.00524543 10.55025443 20.40880032 11.5 22.8125 C11.83386719 23.64587891 12.16773438 24.47925781 12.51171875 25.33789062 C12.82753906 26.14033203 13.14335938 26.94277344 13.46875 27.76953125 C13.90864258 28.87711792 13.90864258 28.87711792 14.35742188 30.00708008 C15 32 15 32 15 35 C9.72 35 4.44 35 -1 35 C-1 33.02 -1 31.04 -1 29 C-1.33 28.34 -1.66 27.68 -2 27 C-2.04022391 24.6670134 -2.04320247 22.33293334 -2 20 C-2.639375 19.896875 -3.27875 19.79375 -3.9375 19.6875 C-4.618125 19.460625 -5.29875 19.23375 -6 19 C-7.12642186 15.62073443 -6.96344705 15.27071722 -5.56640625 12.20703125 C-5.0878418 11.1387207 -5.0878418 11.1387207 -4.59960938 10.04882812 C-4.25736328 9.31083984 -3.91511719 8.57285156 -3.5625 7.8125 C-3.22412109 7.06291016 -2.88574219 6.31332031 -2.53710938 5.54101562 C-1.7000589 3.69007302 -0.85114596 1.84450334 0 0 Z " fill="#121F34" transform="translate(835,543)"/>
<path d="M0 0 C20.295 0.495 20.295 0.495 41 1 C41 3.97 41 6.94 41 10 C31.76 10 22.52 10 13 10 C13 9.67 13 9.34 13 9 C20.92 8.67 28.84 8.34 37 8 C37 6.02 37 4.04 37 2 C26.44 2 15.88 2 5 2 C5 19.82 5 37.64 5 56 C17.54 56 30.08 56 43 56 C43 56.33 43 56.66 43 57 C28.81 57 14.62 57 0 57 C0 38.19 0 19.38 0 0 Z " fill="#0C192C" transform="translate(939,543)"/>
<path d="M0 0 C14.50043691 -0.41038972 14.50043691 -0.41038972 20 3 C21.7196266 6.4392532 21.38219964 10.23164562 21 14 C19.27310955 17.28931514 18.5579199 17.8140267 15 19 C12.42502932 19.07035439 9.88550071 19.0934934 7.3125 19.0625 C3.6928125 19.0315625 3.6928125 19.0315625 0 19 C0 12.73 0 6.46 0 0 Z " fill="#F8FAFA" transform="translate(553,554)"/>
<path d="M0 0 C1.32 0 2.64 0 4 0 C5.8392812 4.12237348 7.67041342 8.24831578 9.5 12.375 C10.02464844 13.550625 10.54929687 14.72625 11.08984375 15.9375 C11.58613281 17.05898438 12.08242188 18.18046875 12.59375 19.3359375 C13.28500977 20.89127197 13.28500977 20.89127197 13.99023438 22.47802734 C15 25 15 25 15 27 C10.38 27 5.76 27 1 27 C-0.65 23.37 -2.3 19.74 -4 16 C-16.87 15.505 -16.87 15.505 -30 15 C-30 14.67 -30 14.34 -30 14 C-21.42 14 -12.84 14 -4 14 C-4.33 13.01 -4.66 12.02 -5 11 C-4.67 10.34 -4.34 9.68 -4 9 C-4.66 8.67 -5.32 8.34 -6 8 C-6.33 7.34 -6.66 6.68 -7 6 C-6.34 6 -5.68 6 -5 6 C-4.67 4.68 -4.34 3.36 -4 2 C-2.68 2.33 -1.36 2.66 0 3 C0 2.01 0 1.02 0 0 Z " fill="#212F41" transform="translate(859,574)"/>
<path d="M0 0 C0.66 0.33 1.32 0.66 2 1 C2.33 3.64 2.66 6.28 3 9 C12.57 9 22.14 9 32 9 C32 11.64 32 14.28 32 17 C20.12 17 8.24 17 -4 17 C-4 4 -4 4 0 0 Z " fill="#13233A" transform="translate(660,582)"/>
<path d="M0 0 C2.29926875 0.55606116 4.29925506 0.55535542 6.66015625 0.4921875 C10.81433606 0.38177741 10.81433606 0.38177741 13.03515625 1.4921875 C13.03515625 2.1521875 13.03515625 2.8121875 13.03515625 3.4921875 C15.34515625 3.4921875 17.65515625 3.4921875 20.03515625 3.4921875 C20.03515625 3.8221875 20.03515625 4.1521875 20.03515625 4.4921875 C18.89046875 4.5540625 18.89046875 4.5540625 17.72265625 4.6171875 C14.71110512 5.27042359 14.71110512 5.27042359 13.22265625 8.5546875 C12.63484375 10.00875 12.63484375 10.00875 12.03515625 11.4921875 C10.03515625 8.4921875 10.03515625 8.4921875 10.41015625 5.3046875 C10.61640625 4.3765625 10.82265625 3.4484375 11.03515625 2.4921875 C7.73515625 2.8221875 4.43515625 3.1521875 1.03515625 3.4921875 C1.28265625 5.008125 1.28265625 5.008125 1.53515625 6.5546875 C2.00501394 10.25481683 2.11115474 13.76826141 2.03515625 17.4921875 C1.37515625 17.4921875 0.71515625 17.4921875 0.03515625 17.4921875 C-0.29484375 14.5221875 -0.62484375 11.5521875 -0.96484375 8.4921875 C-2.29515625 9.0490625 -2.29515625 9.0490625 -3.65234375 9.6171875 C-7.3731038 10.60002978 -8.6392251 10.25280914 -11.96484375 8.4921875 C-13.28484375 9.8121875 -14.60484375 11.1321875 -15.96484375 12.4921875 C-16.62484375 12.1621875 -17.28484375 11.8321875 -17.96484375 11.4921875 C-18.29484375 12.1521875 -18.62484375 12.8121875 -18.96484375 13.4921875 C-21.60484375 12.5021875 -24.24484375 11.5121875 -26.96484375 10.4921875 C-27.29484375 11.1521875 -27.62484375 11.8121875 -27.96484375 12.4921875 C-27.96484375 11.1721875 -27.96484375 9.8521875 -27.96484375 8.4921875 C-25.52885567 7.17681386 -23.09116125 5.86479607 -20.65234375 4.5546875 C-19.96205078 4.18150391 -19.27175781 3.80832031 -18.56054688 3.42382812 C-17.89345703 3.06611328 -17.22636719 2.70839844 -16.5390625 2.33984375 C-15.62000122 1.8449646 -15.62000122 1.8449646 -14.68237305 1.34008789 C-10.08982174 -0.92713751 -4.94399523 -1.27777213 0 0 Z " fill="#132034" transform="translate(669.96484375,173.5078125)"/>
<path d="M0 0 C1.00135636 3.00406907 0.99234777 4.59120188 0.8125 7.6875 C0.7552721 14.2210188 2.84797434 18.44446953 7 23.375 C11.02806818 25.55687027 14.93496321 25.96783707 19.453125 26.5078125 C20.29359375 26.67023437 21.1340625 26.83265625 22 27 C22.495 27.99 22.495 27.99 23 29 C17.39 29 11.78 29 6 29 C6 29.66 6 30.32 6 31 C3.36 31.66 0.72 32.32 -2 33 C-3.15454162 31.75803878 -4.29832562 30.50607155 -5.4375 29.25 C-6.07558594 28.55390625 -6.71367187 27.8578125 -7.37109375 27.140625 C-8.99081325 25.01207275 -9.58267256 23.60976595 -10 21 C-8.68 20.67 -7.36 20.34 -6 20 C-6 20.66 -6 21.32 -6 22 C-5.34 22 -4.68 22 -4 22 C-2.55401229 17.21987534 -2.62559358 12.26724133 -2.37890625 7.3125 C-2.03534743 4.30901671 -1.5663375 2.53657895 0 0 Z " fill="#142237" transform="translate(491,563)"/>
<path d="M0 0 C1.32 0 2.64 0 4 0 C4 18.15 4 36.3 4 55 C6.31 55 8.62 55 11 55 C11 50.05 11 45.1 11 40 C11.33 40 11.66 40 12 40 C12 45.28 12 50.56 12 56 C8.04 56 4.08 56 0 56 C0 37.52 0 19.04 0 0 Z " fill="#081428" transform="translate(540,544)"/>
<path d="M0 0 C2.5546875 1.96875 2.5546875 1.96875 4.875 4.5 C5.65617188 5.3353125 6.43734375 6.170625 7.2421875 7.03125 C7.82226562 7.6809375 8.40234375 8.330625 9 9 C7.61811547 12.21043882 6.07578097 14.04936365 3.375 16.25 C2.74335937 16.77078125 2.11171875 17.2915625 1.4609375 17.828125 C0.97882812 18.21484375 0.49671875 18.6015625 0 19 C-0.33 18.34 -0.66 17.68 -1 17 C-3.12576782 16.53348793 -3.12576782 16.53348793 -5.5625 16.375 C-6.38878906 16.30023438 -7.21507812 16.22546875 -8.06640625 16.1484375 C-8.70449219 16.09945312 -9.34257813 16.05046875 -10 16 C-9.01 15.67 -8.02 15.34 -7 15 C-7.33 12.03 -7.66 9.06 -8 6 C-8.66 6 -9.32 6 -10 6 C-10 3 -10 3 -8.375 1.3125 C-5.28038116 -0.39768409 -3.5059095 -0.40352671 0 0 Z " fill="#16243A" transform="translate(839,216)"/>
<path d="M0 0 C0.66 0.99 1.32 1.98 2 3 C1.67 3.66 1.34 4.32 1 5 C1.24662241 8.06314844 1.24662241 8.06314844 2 11 C2.66 11.33 3.32 11.66 4 12 C4 13.65 4 15.3 4 17 C4.66 17 5.32 17 6 17 C4.125 23.875 4.125 23.875 3 25 C0.81360547 25.07258946 -1.37500389 25.08373783 -3.5625 25.0625 C-5.35880859 25.04896484 -5.35880859 25.04896484 -7.19140625 25.03515625 C-8.11824219 25.02355469 -9.04507813 25.01195312 -10 25 C-7.37589493 16.35588919 -3.68616238 8.23074615 0 0 Z " fill="#172438" transform="translate(821,576)"/>
<path d="M0 0 C0.66 0 1.32 0 2 0 C3.17495143 2.93425371 4.33850852 5.87289513 5.5 8.8125 C5.83386719 9.64587891 6.16773438 10.47925781 6.51171875 11.33789062 C6.82753906 12.14033203 7.14335938 12.94277344 7.46875 13.76953125 C7.76201172 14.50792236 8.05527344 15.24631348 8.35742188 16.00708008 C9 18 9 18 9 21 C3.72 21 -1.56 21 -7 21 C-6.33577702 17.67888508 -5.76292144 15.08168801 -4.58984375 12.01171875 C-4.32236328 11.30595703 -4.05488281 10.60019531 -3.77929688 9.87304688 C-3.50150391 9.15181641 -3.22371094 8.43058594 -2.9375 7.6875 C-2.51500977 6.57665039 -2.51500977 6.57665039 -2.08398438 5.44335938 C-1.39281425 3.62757345 -0.69688311 1.81360101 0 0 Z " fill="#F0F3F5" transform="translate(841,557)"/>
<path d="M0 0 C2.33002055 2.33002055 2.41956957 3.24690495 2.8125 6.4375 C2.92207031 7.21996094 3.03164063 8.00242187 3.14453125 8.80859375 C3 11 3 11 1.51171875 12.78515625 C1.01285156 13.18605469 0.51398437 13.58695312 0 14 C0.99 14.33 1.98 14.66 3 15 C5.51458106 17.21522617 7.56336743 19.07215579 9 22.125 C9 24 9 24 7.5625 25.75 C7.046875 26.1625 6.53125 26.575 6 27 C-0.65425532 24.59707447 -0.65425532 24.59707447 -3 22 C-3.77325138 19.0022501 -4.16816354 16.09420912 -4 13 C-3.34 12.01 -2.68 11.02 -2 10 C-3.32 9.67 -4.64 9.34 -6 9 C-6 6 -6 6 -4.6875 4.39453125 C-4.130625 3.87246094 -3.57375 3.35039062 -3 2.8125 C-2.443125 2.28269531 -1.88625 1.75289063 -1.3125 1.20703125 C-0.6628125 0.60955078 -0.6628125 0.60955078 0 0 Z " fill="#1B273A" transform="translate(613,390)"/>
<path d="M0 0 C0.33 0 0.66 0 1 0 C1 18.15 1 36.3 1 55 C3.31 55 5.62 55 8 55 C8 54.01 8 53.02 8 52 C8.66 52 9.32 52 10 52 C10 45.4 10 38.8 10 32 C9.34 32 8.68 32 8 32 C8.185625 31.38125 8.37125 30.7625 8.5625 30.125 C9.23686176 27.95839822 9.23686176 27.95839822 8 26 C8.33 25.01 8.66 24.02 9 23 C9.99 23.33 10.98 23.66 12 24 C12 34.56 12 45.12 12 56 C8.04 56 4.08 56 0 56 C0 37.52 0 19.04 0 0 Z " fill="#0C1729" transform="translate(704,544)"/>
<path d="M0 0 C0.66 0 1.32 0 2 0 C2.66 1.98 3.32 3.96 4 6 C2.68 6.33 1.36 6.66 0 7 C0 11.95 0 16.9 0 22 C-0.33 22 -0.66 22 -1 22 C-1.10957031 21.38511719 -1.21914063 20.77023437 -1.33203125 20.13671875 C-1.49058594 19.32847656 -1.64914062 18.52023437 -1.8125 17.6875 C-1.96332031 16.88699219 -2.11414063 16.08648438 -2.26953125 15.26171875 C-3.09378833 12.70960726 -3.90725641 11.64683212 -6 10 C-9.46712111 8.84429296 -12.5414956 8.67164707 -16.1875 8.4375 C-19.5596875 8.2209375 -19.5596875 8.2209375 -23 8 C-23 14.27 -23 20.54 -23 27 C-18.71 27 -14.42 27 -10 27 C-10 27.33 -10 27.66 -10 28 C-14.62 28 -19.24 28 -24 28 C-24.19377038 24.52107646 -24.38031376 21.04203235 -24.5625 17.5625 C-24.61857422 16.56927734 -24.67464844 15.57605469 -24.73242188 14.55273438 C-24.78076172 13.60849609 -24.82910156 12.66425781 -24.87890625 11.69140625 C-24.9260376 10.81685791 -24.97316895 9.94230957 -25.02172852 9.04125977 C-25 7 -25 7 -24 6 C-22.14825294 5.84213692 -20.2909089 5.74892644 -18.43359375 5.68359375 C-16.7465332 5.62075195 -16.7465332 5.62075195 -15.02539062 5.55664062 C-13.24938477 5.49766602 -13.24938477 5.49766602 -11.4375 5.4375 C-10.24962891 5.39431641 -9.06175781 5.35113281 -7.83789062 5.30664062 C-4.89205216 5.20016454 -1.9461257 5.09815159 1 5 C1 4.34 1 3.68 1 3 C0.34 2.67 -0.32 2.34 -1 2 C-0.67 1.34 -0.34 0.68 0 0 Z " fill="#283343" transform="translate(576,546)"/>
<path d="M0 0 C2.64 0.33 5.28 0.66 8 1 C8 1.99 8 2.98 8 4 C5.19464954 6.80535046 1.78896328 7.69005207 -1.875 9 C-7.20689314 10.88331648 -7.20689314 10.88331648 -12.35546875 13.19921875 C-14.86316781 14.42030737 -16.39128939 13.82715214 -19 13 C-21.8125 11.6875 -21.8125 11.6875 -24 10 C-24 8.68 -24 7.36 -24 6 C-23.34 6 -22.68 6 -22 6 C-22 5.01 -22 4.02 -22 3 C-21.34 3 -20.68 3 -20 3 C-19.67 4.98 -19.34 6.96 -19 9 C-14.71 9 -10.42 9 -6 9 C-6 8.34 -6 7.68 -6 7 C-4.625 5.375 -4.625 5.375 -3 4 C-2.34 4 -1.68 4 -1 4 C-0.67 2.68 -0.34 1.36 0 0 Z " fill="#111D2F" transform="translate(675,247)"/>
<path d="M0 0 C0.33 0 0.66 0 1 0 C1 4.29 1 8.58 1 13 C9.58 13 18.16 13 27 13 C27 16.3 27 19.6 27 23 C19.08 23 11.16 23 3 23 C3 22.67 3 22.34 3 22 C9.6 22 16.2 22 23 22 C23 19.69 23 17.38 23 15 C22.30849854 15.00523682 21.61699707 15.01047363 20.90454102 15.01586914 C17.79053648 15.036575 14.67654639 15.04963963 11.5625 15.0625 C10.47388672 15.07087891 9.38527344 15.07925781 8.26367188 15.08789062 C7.22919922 15.09111328 6.19472656 15.09433594 5.12890625 15.09765625 C3.69140015 15.10551147 3.69140015 15.10551147 2.22485352 15.11352539 C0 15 0 15 -1 14 C-1.09900199 12.02287193 -1.12970773 10.04209962 -1.125 8.0625 C-1.12757813 6.98097656 -1.13015625 5.89945313 -1.1328125 4.78515625 C-1 2 -1 2 0 0 Z " fill="#162131" transform="translate(609,553)"/>
<path d="M0 0 C0.99 0 1.98 0 3 0 C3.33 0.66 3.66 1.32 4 2 C7.24733335 3.2757381 9.67032582 2.83241855 13 2 C13 2.66 13 3.32 13 4 C13.763125 3.938125 14.52625 3.87625 15.3125 3.8125 C18 4 18 4 19.8125 5.5 C20.204375 5.995 20.59625 6.49 21 7 C18.71354412 12.6559698 18.71354412 12.6559698 15.8125 14.0546875 C11.35566346 13.96802679 9.24418722 11.21011044 6.1875 8.1875 C5.59001953 7.62740234 4.99253906 7.06730469 4.37695312 6.49023438 C2.86653423 5.04541081 1.42699116 3.52727751 0 2 C0 1.34 0 0.68 0 0 Z " fill="#122033" transform="translate(566,453)"/>
<path d="M0 0 C0.66 0.99 1.32 1.98 2 3 C1.3566152 4.313702 0.71021785 5.62592898 0.0625 6.9375 C-0.29714844 7.66839844 -0.65679688 8.39929688 -1.02734375 9.15234375 C-2 11 -2 11 -3 12 C-2.34 12.33 -1.68 12.66 -1 13 C-0.34 11.68 0.32 10.36 1 9 C3 14.625 3 14.625 3 18 C-1.625 20.125 -1.625 20.125 -5 19 C-4.34 18.67 -3.68 18.34 -3 18 C-5.64 17.34 -8.28 16.68 -11 16 C-10.34 14.68 -9.68 13.36 -9 12 C-9.99 11.67 -10.98 11.34 -12 11 C-9.03 10.34 -6.06 9.68 -3 9 C-3 7.02 -3 5.04 -3 3 C-2.34 3 -1.68 3 -1 3 C-0.67 2.01 -0.34 1.02 0 0 Z " fill="#132034" transform="translate(750,481)"/>
<path d="M0 0 C3.10107022 0.54765037 5.81534063 1.74198494 8.6875 3 C13.53109083 4.98637603 17.79068904 5.66391542 23 6 C23 6.33 23 6.66 23 7 C21.60587891 6.96519531 21.60587891 6.96519531 20.18359375 6.9296875 C10.90052792 6.76496375 10.90052792 6.76496375 2 9 C2 9.66 2 10.32 2 11 C2.66 11.66 3.32 12.32 4 13 C0.62537285 12.45276317 -1.08235 11.9451 -4 10 C-3.52449439 8.51965236 -3.04448784 7.04074979 -2.5625 5.5625 C-2.29566406 4.73878906 -2.02882813 3.91507813 -1.75390625 3.06640625 C-1 1 -1 1 0 0 Z " fill="#111B2D" transform="translate(430,585)"/>
<path d="M0 0 C4.75481646 0.57634139 7.97048212 2.55068521 12 5 C11.25 9.75 11.25 9.75 9 12 C4.49953685 11.74997427 1.58211773 9.58245696 -2 7 C-1.125 2.25 -1.125 2.25 0 0 Z " fill="#F0F3F4" transform="translate(795,200)"/>
<path d="M0 0 C1.50046875 0.00386719 1.50046875 0.00386719 3.03125 0.0078125 C4.0315625 0.00523437 5.031875 0.00265625 6.0625 0 C8.53125 0.1328125 8.53125 0.1328125 9.53125 1.1328125 C9.65625 4.6328125 9.65625 4.6328125 9.53125 8.1328125 C9.20125 8.4628125 8.87125 8.7928125 8.53125 9.1328125 C6.69477258 9.06888449 4.86054108 8.93225521 3.03125 8.7578125 C2.0309375 8.66757812 1.030625 8.57734375 0 8.484375 C-2.46875 8.1328125 -2.46875 8.1328125 -3.46875 7.1328125 C-3.59375 4.1328125 -3.59375 4.1328125 -3.46875 1.1328125 C-2.46875 0.1328125 -2.46875 0.1328125 0 0 Z " fill="#E4E9EC" transform="translate(686.46875,488.8671875)"/>
<path d="M0 0 C4.56454251 0.54339792 7.9728176 1.79463821 12 4 C11.125 8.75 11.125 8.75 10 11 C5.43545749 10.45660208 2.0271824 9.20536179 -2 7 C-1.125 2.25 -1.125 2.25 0 0 Z " fill="#F1F4F6" transform="translate(768,188)"/>
<path d="M0 0 C4.01422236 0.61757267 6.82909453 2.53374019 10 5 C11.125 7 11.125 7 11 9 C9.0625 11.25 9.0625 11.25 7 13 C4.03 11.02 1.06 9.04 -2 7 C-1 2 -1 2 0 0 Z " fill="#EDF2F4" transform="translate(603,462)"/>
<path d="M0 0 C3.99500618 1.3697164 6.80009492 3.25722422 10 6 C9.25 10.75 9.25 10.75 7 13 C2.75280228 12.84831437 0.01437907 9.67183599 -3 7 C-2.25 2.25 -2.25 2.25 0 0 Z " fill="#EFF3F4" transform="translate(821,216)"/>
<path d="M0 0 C1.6256807 0.30893932 3.25052748 0.6222695 4.875 0.9375 C5.77992188 1.11152344 6.68484375 1.28554688 7.6171875 1.46484375 C10 2 10 2 12 3 C11.67 5.31 11.34 7.62 11 10 C6.45194365 10.17835515 3.1205746 9.99785435 -1 8 C-1.125 2.25 -1.125 2.25 0 0 Z " fill="#EDF1F3" transform="translate(656,484)"/>
<path d="M0 0 C4.78756196 0.368274 8.05438736 1.25002755 12 4 C11.39816251 6.02045442 10.72693904 8.02111039 10 10 C8 11 8 11 5.6171875 10.22265625 C4.25980469 9.64837891 4.25980469 9.64837891 2.875 9.0625 C1.96492187 8.68222656 1.05484375 8.30195313 0.1171875 7.91015625 C-0.93082031 7.45962891 -0.93082031 7.45962891 -2 7 C-1.125 1.125 -1.125 1.125 0 0 Z " fill="#EFF3F5" transform="translate(629,476)"/>
<path d="M0 0 C1.6256807 0.30893932 3.25052748 0.6222695 4.875 0.9375 C5.77992188 1.11152344 6.68484375 1.28554687 7.6171875 1.46484375 C10 2 10 2 12 3 C12.125 5.375 12.125 5.375 12 8 C10 10 10 10 7.65234375 10.01171875 C6.75644531 9.90472656 5.86054687 9.79773438 4.9375 9.6875 C4.03902344 9.58824219 3.14054688 9.48898438 2.21484375 9.38671875 C0 9 0 9 -1 8 C-1.23529412 2.47058824 -1.23529412 2.47058824 0 0 Z " fill="#EBEFF2" transform="translate(740,180)"/>
<path d="M0 0 C1.0725 0.37125 2.145 0.7425 3.25 1.125 C6.81629347 2.31491732 6.81629347 2.31491732 9.4375 1.125 C9.953125 0.75375 10.46875 0.3825 11 0 C12.125 7.625 12.125 7.625 11 11 C8.66666667 11 6.33333333 11 4 11 C4.33 11.66 4.66 12.32 5 13 C2.525 12.01 2.525 12.01 0 11 C0.185625 9.9275 0.37125 8.855 0.5625 7.75 C0.9304568 4.59608454 1.04465343 2.90181508 0 0 Z " fill="#111F35" transform="translate(604,472)"/>
<path d="M0 0 C4.43458973 1.3937282 6.87378374 3.60582235 10 7 C9.25 9.4375 9.25 9.4375 8 12 C6.15234375 12.83203125 6.15234375 12.83203125 4 13 C2.11328125 11.890625 2.11328125 11.890625 0.3125 10.25 C-0.28949219 9.71890625 -0.89148438 9.1878125 -1.51171875 8.640625 C-3 7 -3 7 -4 4 C-2.68 2.68 -1.36 1.36 0 0 Z " fill="#F1F5F6" transform="translate(580,445)"/>
<path d="M0 0 C4.24465971 0.27682563 6.81617671 1.18354094 10 4 C9.125 8.75 9.125 8.75 8 11 C3.87248551 10.39301257 0.6678852 8.96189209 -3 7 C-2.25 2.25 -2.25 2.25 0 0 Z " fill="#F0F2F3" transform="translate(764,243)"/>
<path d="M0 0 C3.07010609 0.67289996 5.75550835 1.72882455 8.625 3 C13.73221787 5.09760734 18.51236542 5.76648363 24 6 C24 6.33 24 6.66 24 7 C23.01604248 7.02187378 23.01604248 7.02187378 22.01220703 7.04418945 C19.04919969 7.11851414 16.08733883 7.21522369 13.125 7.3125 C12.09246094 7.33505859 11.05992187 7.35761719 9.99609375 7.38085938 C8.51689453 7.4340332 8.51689453 7.4340332 7.0078125 7.48828125 C6.09660645 7.51446533 5.18540039 7.54064941 4.24658203 7.56762695 C3.50520996 7.71031006 2.76383789 7.85299316 2 8 C1.01 9.485 1.01 9.485 0 11 C-1.32 10.67 -2.64 10.34 -4 10 C-2.8905928 6.51329166 -1.73662334 3.22515763 0 0 Z " fill="#121B2D" transform="translate(767,585)"/>
<path d="M0 0 C2.03356975 1.08457053 3.36736293 2.26621737 4.875 4 C3.31999019 7.81684226 0.83904505 10.19195732 -2.125 13 C-6 11.125 -6 11.125 -7.125 10 C-7.5 7.75 -7.5 7.75 -7.125 5 C-3.21195652 0 -3.21195652 0 0 0 Z " fill="#142031" transform="translate(923.125,547)"/>
<path d="M0 0 C0.9075 0.00257813 1.815 0.00515625 2.75 0.0078125 C4.11125 0.00394531 4.11125 0.00394531 5.5 0 C7.75 0.1328125 7.75 0.1328125 8.75 1.1328125 C8.79092937 3.46578683 8.79241723 5.79986475 8.75 8.1328125 C4.79 8.1328125 0.83 8.1328125 -3.25 8.1328125 C-3.29241723 5.79986475 -3.29092937 3.46578683 -3.25 1.1328125 C-2.25 0.1328125 -2.25 0.1328125 0 0 Z " fill="#EFF3F5" transform="translate(714.25,176.8671875)"/>
<path d="M0 0 C3.3 0.66 6.6 1.32 10 2 C10.33 2.99 10.66 3.98 11 5 C9.5625 7.6875 9.5625 7.6875 8 10 C3.545 9.01 3.545 9.01 -1 8 C-2 4 -2 4 0 0 Z " fill="#E9EDEF" transform="translate(738,234)"/>
<path d="M0 0 C3.97132519 0.32199934 6.70665213 1.83579997 10 4 C9.1875 6.9375 9.1875 6.9375 8 10 C5 11 5 11 2.95703125 10.22265625 C2.24933594 9.83980469 1.54164063 9.45695312 0.8125 9.0625 C0.09707031 8.68222656 -0.61835937 8.30195313 -1.35546875 7.91015625 C-1.89816406 7.60980469 -2.44085937 7.30945313 -3 7 C-2.25 2.25 -2.25 2.25 0 0 Z " fill="#EFF2F4" transform="translate(636,420)"/>
<path d="M0 0 C0.87785156 0.09925781 1.75570312 0.19851562 2.66015625 0.30078125 C4.9375 0.6875 4.9375 0.6875 6.9375 1.6875 C6.9375 2.3475 6.9375 3.0075 6.9375 3.6875 C4.2975 3.6875 1.6575 3.6875 -1.0625 3.6875 C-1.0625 4.3475 -1.0625 5.0075 -1.0625 5.6875 C-4.6925 6.3475 -8.3225 7.0075 -12.0625 7.6875 C-12.0625 6.6975 -12.0625 5.7075 -12.0625 4.6875 C-12.7225 4.6875 -13.3825 4.6875 -14.0625 4.6875 C-14.0625 5.3475 -14.0625 6.0075 -14.0625 6.6875 C-14.7225 6.3575 -15.3825 6.0275 -16.0625 5.6875 C-16.0625 4.6975 -16.0625 3.7075 -16.0625 2.6875 C-13.08398438 2.39453125 -13.08398438 2.39453125 -10.10546875 2.1015625 C-5.90114395 1.24944313 -4.57976878 -0.55982446 0 0 Z " fill="#0C1A2E" transform="translate(752.0625,172.3125)"/>
<path d="M0 0 C1.69141656 0.08963062 3.37959602 0.24577676 5.0625 0.4375 C6.44115234 0.59025391 6.44115234 0.59025391 7.84765625 0.74609375 C8.55792969 0.82988281 9.26820313 0.91367187 10 1 C10 3.64 10 6.28 10 9 C8.35425434 9.02688151 6.70838587 9.04634123 5.0625 9.0625 C4.14597656 9.07410156 3.22945312 9.08570313 2.28515625 9.09765625 C0 9 0 9 -1 8 C-1.125 4.5 -1.125 4.5 -1 1 C-0.67 0.67 -0.34 0.34 0 0 Z " fill="#EBEFF1" transform="translate(686,435)"/>
<path d="M0 0 C3.46941546 0.45822468 6.67395049 0.89131683 10 2 C10.125 7.75 10.125 7.75 9 10 C5.53058454 9.54177532 2.32604951 9.10868317 -1 8 C-1.125 2.25 -1.125 2.25 0 0 Z " fill="#F1F4F6" transform="translate(660,430)"/>
<path d="M0 0 C3.63 0 7.26 0 11 0 C11 2.64 11 5.28 11 8 C9.35425434 8.02688151 7.70838587 8.04634123 6.0625 8.0625 C5.14597656 8.07410156 4.22945312 8.08570313 3.28515625 8.09765625 C1 8 1 8 0 7 C-0.04092937 4.66702567 -0.04241723 2.33294775 0 0 Z " fill="#EDF2F4" transform="translate(711,231)"/>
<path d="M0 0 C2.1519437 3.22791555 2.20086443 4.28400809 2 8 C2.66 8 3.32 8 4 8 C4 8.99 4 9.98 4 11 C2.824375 11.61875 2.824375 11.61875 1.625 12.25 C-1.27198838 14.18132558 -1.89524019 15.41006194 -2.671875 18.75390625 C-3.24214989 22.65757368 -3.46080655 26.58525189 -3.65625 30.5234375 C-3.7696875 31.34070313 -3.883125 32.15796875 -4 33 C-4.99 33.495 -4.99 33.495 -6 34 C-6.908632 22.31398294 -3.82154108 10.96541291 0 0 Z " fill="#1D2838" transform="translate(580,237)"/>
<path d="M0 0 C0.66 0.33 1.32 0.66 2 1 C2.99 1 3.98 1 5 1 C4.855625 1.81082031 4.71125 2.62164062 4.5625 3.45703125 C3.481669 9.9044884 2.79809661 16.02397274 3.02734375 22.5625 C2.99825025 25.15597803 2.58110665 27.47736649 2 30 C1.67 30 1.34 30 1 30 C1 22.74 1 15.48 1 8 C0.01 8 -0.98 8 -2 8 C-2 7.34 -2 6.68 -2 6 C-3.65 6.66 -5.3 7.32 -7 8 C-6.02133662 6.85373678 -5.04205413 5.70800212 -4.0625 4.5625 C-3.51722656 3.92441406 -2.97195313 3.28632813 -2.41015625 2.62890625 C-1.63204305 1.73008851 -0.84063472 0.84063472 0 0 Z " fill="#0A192C" transform="translate(607,200)"/>
<path d="M0 0 C3.85098598 0.26558524 6.16695501 2.56043348 9 5 C8.75 6.875 8.75 6.875 8 9 C5.9375 10.25 5.9375 10.25 4 11 C1.69 9.35 -0.62 7.7 -3 6 C-2 2 -2 2 0 0 Z " fill="#EFF3F4" transform="translate(613,406)"/>
<path d="M0 0 C0.33 2.31 0.66 4.62 1 7 C-2.50776784 8.60355101 -5.14354879 9.22036864 -9 9 C-10.35439668 6.29120665 -10.06501451 3.99066732 -10 1 C-6.56484998 0.37542727 -3.50935186 0 0 0 Z " fill="#E8ECEE" transform="translate(721,434)"/>
<path d="M0 0 C3.63 0 7.26 0 11 0 C11 2.31 11 4.62 11 7 C7.37 7.33 3.74 7.66 0 8 C0 5.36 0 2.72 0 0 Z " fill="#EEF1F2" transform="translate(712,489)"/>
<path d="M0 0 C3.3 0 6.6 0 10 0 C10 1.65 10 3.3 10 5 C7.69 5 5.38 5 3 5 C3 8.63 3 12.26 3 16 C2.01 16 1.02 16 0 16 C0 10.72 0 5.44 0 0 Z " fill="#0C192C" transform="translate(916,571)"/>
<path d="M0 0 C2.31 0 4.62 0 7 0 C7 0.99 7 1.98 7 3 C8.03125 3.12375 9.0625 3.2475 10.125 3.375 C14 4 14 4 17.125 5.0625 C19.95102756 5.98403073 22.05471874 6.17325184 25 6 C25 6.99 25 7.98 25 9 C26.98 9 28.96 9 31 9 C31 9.99 31 10.98 31 12 C23.72746691 10.5591436 16.9137634 8.36620826 9.9375 5.875 C8.88111328 5.50246094 7.82472656 5.12992187 6.73632812 4.74609375 C4.15587683 3.83534623 1.57719856 2.91990295 -1 2 C-0.67 1.34 -0.34 0.68 0 0 Z " fill="#252E3C" transform="translate(664,370)"/>
<path d="M0 0 C3.3 0 6.6 0 10 0 C10 2.31 10 4.62 10 7 C6.7 7.33 3.4 7.66 0 8 C0 5.36 0 2.72 0 0 Z " fill="#EEF1F5" transform="translate(685,178)"/>
<path d="M0 0 C0 2.31 0 4.62 0 7 C-1.47831221 7.19412181 -2.95769316 7.38012131 -4.4375 7.5625 C-5.26121094 7.66691406 -6.08492187 7.77132812 -6.93359375 7.87890625 C-7.61550781 7.91886719 -8.29742188 7.95882812 -9 8 C-10 7 -10 7 -10.0625 3.9375 C-10.041875 2.968125 -10.02125 1.99875 -10 1 C-6.52674819 -0.1577506 -3.63932552 -0.06866652 0 0 Z " fill="#F0F4F6" transform="translate(696,232)"/>
<path d="M0 0 C2.31 0.66 4.62 1.32 7 2 C5.68 4.64 4.36 7.28 3 10 C1.906875 9.814375 0.81375 9.62875 -0.3125 9.4375 C-3.93624133 8.7421932 -3.93624133 8.7421932 -7 10 C-5.33248852 6.05860922 -2.77289351 3.2107188 0 0 Z " fill="#111E33" transform="translate(605,398)"/>
<path d="M0 0 C0.33 2.31 0.66 4.62 1 7 C-3.43076923 9.09230769 -3.43076923 9.09230769 -6.3125 8.625 C-6.869375 8.41875 -7.42625 8.2125 -8 8 C-8.33 6.02 -8.66 4.04 -9 2 C-5.86501708 0.14223235 -3.62528568 -0.20140476 0 0 Z " fill="#EEF2F4" transform="translate(744,428)"/>
<path d="M0 0 C0.33 2.64 0.66 5.28 1 8 C-1.90600261 9.25664978 -3.79604584 10 -7 10 C-8.4606285 7.35261084 -9 6.10551666 -9 3 C-3.375 0 -3.375 0 0 0 Z " fill="#E5EBEE" transform="translate(672,237)"/>
<path d="M0 0 C3.46692734 3.7971109 4.51061867 8.17724141 6 13 C3.03 13 0.06 13 -3 13 C-3.46192125 8.07284004 -1.8275283 4.49267375 0 0 Z " fill="#1A2738" transform="translate(867,586)"/>
<path d="M0 0 C1.16348868 3.49046605 1.16834776 6.32277017 1.1875 10 C1.20167969 11.2375 1.21585937 12.475 1.23046875 13.75 C1 17 1 17 -1 20 C-1.38499891 21.65549531 -1.72793135 23.3222433 -2 25 C-3.32 25.33 -4.64 25.66 -6 26 C-6 25.34 -6 24.68 -6 24 C-6.99 24.33 -7.98 24.66 -9 25 C-9.33 23.68 -9.66 22.36 -10 21 C-8.68 20.67 -7.36 20.34 -6 20 C-6 20.66 -6 21.32 -6 22 C-5.34 22 -4.68 22 -4 22 C-2.55401229 17.21987534 -2.62559358 12.26724133 -2.37890625 7.3125 C-2.03534743 4.30901671 -1.5663375 2.53657895 0 0 Z " fill="#0A1729" transform="translate(491,563)"/>
<path d="M0 0 C0.66 0.33 1.32 0.66 2 1 C2.4140625 3.06640625 2.4140625 3.06640625 2.625 5.5625 C2.69976563 6.38878906 2.77453125 7.21507812 2.8515625 8.06640625 C2.92503906 9.02353516 2.92503906 9.02353516 3 10 C5.31 10 7.62 10 10 10 C10.33 8.68 10.66 7.36 11 6 C12.32 6 13.64 6 15 6 C11.55384615 10.8 11.55384615 10.8 8.75 11.8125 C8.1725 11.874375 7.595 11.93625 7 12 C7.99 13.32 8.98 14.64 10 16 C7.23607171 15.91870799 5.4720282 15.39022472 3.33203125 13.62109375 C0.27557689 10.37587973 -0.92466807 8.66722566 -1.4375 4.125 C-1 1 -1 1 0 0 Z " fill="#0C1828" transform="translate(766,558)"/>
<path d="M0 0 C2.40475478 -0.06679874 4.54872902 -0.12077584 6.8828125 0.50390625 C9.21480278 1.05033202 11.23469829 1.06395456 13.625 1 C17.77917981 0.88958991 17.77917981 0.88958991 20 2 C20 2.66 20 3.32 20 4 C22.31 4 24.62 4 27 4 C27 4.33 27 4.66 27 5 C25.8553125 5.061875 25.8553125 5.061875 24.6875 5.125 C21.67594887 5.77823609 21.67594887 5.77823609 20.1875 9.0625 C19.795625 10.031875 19.40375 11.00125 19 12 C17 9 17 9 18 3 C12.06 3 6.12 3 0 3 C0 2.01 0 1.02 0 0 Z " fill="#09162B" transform="translate(663,173)"/>
<path d="M0 0 C0.43828125 0.40992188 0.8765625 0.81984375 1.328125 1.2421875 C6.52052396 5.65361588 10.81818741 6.86949655 17.55859375 7.578125 C18.36425781 7.71734375 19.16992188 7.8565625 20 8 C20.33 8.66 20.66 9.32 21 10 C15.39 10 9.78 10 4 10 C4 10.66 4 11.32 4 12 C2.68 11.67 1.36 11.34 0 11 C0.99 10.67 1.98 10.34 3 10 C3.25069913 7.62570704 3.25069913 7.62570704 3 5 C1.56249809 3.31201173 1.56249809 3.31201173 0 2 C0 1.34 0 0.68 0 0 Z " fill="#0A1629" transform="translate(493,582)"/>
<path d="M0 0 C1.34905313 0.04232195 2.69793464 0.0903437 4.04663086 0.14282227 C5.10991859 0.17823875 5.10991859 0.17823875 6.19468689 0.21437073 C8.46714482 0.29117497 10.73927617 0.37512626 13.01147461 0.45922852 C14.5485678 0.51243248 16.08567711 0.56517297 17.62280273 0.61743164 C21.39840164 0.74681256 25.17372263 0.88260542 28.94897461 1.02172852 C26.19530275 3.77540037 24.58364607 3.27975918 20.73413086 3.28735352 C18.86917969 3.2912207 18.86917969 3.2912207 16.96655273 3.29516602 C15.00878906 3.28356445 15.00878906 3.28356445 13.01147461 3.27172852 C11.05951172 3.28333008 11.05951172 3.28333008 9.06811523 3.29516602 C7.20123047 3.29129883 7.20123047 3.29129883 5.29663086 3.28735352 C4.15202393 3.28509766 3.00741699 3.2828418 1.828125 3.28051758 C-1.05102539 3.02172852 -1.05102539 3.02172852 -4.05102539 1.02172852 C-3.05102539 0.02172852 -3.05102539 0.02172852 0 0 Z " fill="#2F3845" transform="translate(687.051025390625,504.978271484375)"/>
<path d="M0 0 C0.33 0 0.66 0 1 0 C1.62626649 11.72510036 1.62626649 11.72510036 -0.75 16.5625 C-1.4925 17.366875 -2.235 18.17125 -3 19 C-3.680625 19.78375 -4.36125 20.5675 -5.0625 21.375 C-7 23 -7 23 -10 23 C-10 21.35 -10 19.7 -10 18 C-8.824375 18.0928125 -8.824375 18.0928125 -7.625 18.1875 C-6.75875 18.125625 -5.8925 18.06375 -5 18 C-2.68622795 14.52934193 -2.11015527 11.32959845 -1.375 7.3125 C-1.2409375 6.61060547 -1.106875 5.90871094 -0.96875 5.18554688 C-0.6397283 3.45818294 -0.31904688 1.72923409 0 0 Z " fill="#0D1828" transform="translate(586,558)"/>
<path d="M0 0 C0.33 0 0.66 0 1 0 C1 6.6 1 13.2 1 20 C6.94 19.67 12.88 19.34 19 19 C18.34 19.99 17.68 20.98 17 22 C14.03237603 22.22212754 11.33095985 22.28037029 8.375 22.1875 C5.61125 22.125625 2.8475 22.06375 0 22 C0 14.74 0 7.48 0 0 Z " fill="#071121" transform="translate(551,554)"/>
<path d="M0 0 C4.32158374 0.32011731 6.93510362 3.21373057 10 6 C10 6.33 10 6.66 10 7 C8.20841511 7.02696365 6.41671527 7.04637917 4.625 7.0625 C3.62726562 7.07410156 2.62953125 7.08570313 1.6015625 7.09765625 C-1 7 -1 7 -3 6 C-1.125 1.125 -1.125 1.125 0 0 Z " fill="#EAEFF2" transform="translate(788,257)"/>
<path d="M0 0 C0.33 1.98 0.66 3.96 1 6 C-3.43076923 8.09230769 -3.43076923 8.09230769 -6.3125 7.625 C-6.869375 7.41875 -7.42625 7.2125 -8 7 C-8.33 5.35 -8.66 3.7 -9 2 C-3.375 0 -3.375 0 0 0 Z " fill="#E4E8EE" transform="translate(746,484)"/>
<path d="M0 0 C2.12508244 3.18762365 2.5020163 5.26512223 3 9 C-1.625 11.125 -1.625 11.125 -5 10 C-4.34 9.67 -3.68 9.34 -3 9 C-5.64 8.34 -8.28 7.68 -11 7 C-9.8125 5.4375 -9.8125 5.4375 -8 4 C-5.3125 4.3125 -5.3125 4.3125 -3 5 C-2.01 3.35 -1.02 1.7 0 0 Z " fill="#0B192F" transform="translate(750,490)"/>
<path d="M0 0 C0.33 0 0.66 0 1 0 C1.33 4.29 1.66 8.58 2 13 C9.92 13.33 17.84 13.66 26 14 C26 14.33 26 14.66 26 15 C21.68751391 15.02886537 17.37505238 15.04675255 13.0625 15.0625 C11.83080078 15.07087891 10.59910156 15.07925781 9.33007812 15.08789062 C8.16025391 15.09111328 6.99042969 15.09433594 5.78515625 15.09765625 C4.15912476 15.10551147 4.15912476 15.10551147 2.50024414 15.11352539 C0 15 0 15 -1 14 C-1.09900199 12.02287193 -1.12970773 10.04209962 -1.125 8.0625 C-1.12757813 6.98097656 -1.13015625 5.89945313 -1.1328125 4.78515625 C-1 2 -1 2 0 0 Z " fill="#081223" transform="translate(609,553)"/>
<path d="M0 0 C1.98 0 3.96 0 6 0 C6 0.66 6 1.32 6 2 C7.98 2 9.96 2 12 2 C13.32229189 4.64458379 13.09677194 6.67761301 13.0625 9.625 C13.05347656 10.62789062 13.04445313 11.63078125 13.03515625 12.6640625 C13.02355469 13.43492187 13.01195312 14.20578125 13 15 C12.34 15 11.68 15 11 15 C10.7525 13.7625 10.505 12.525 10.25 11.25 C9.29158389 7.4565488 8.22069421 5.3925157 5 3 C2.36777038 1.74563813 2.36777038 1.74563813 0 1 C0 0.67 0 0.34 0 0 Z " fill="#0E1A2C" transform="translate(787,577)"/>
<path d="M0 0 C0 0.33 0 0.66 0 1 C-0.74765625 1.03738281 -1.4953125 1.07476563 -2.265625 1.11328125 C-3.25046875 1.17902344 -4.2353125 1.24476563 -5.25 1.3125 C-6.22453125 1.37050781 -7.1990625 1.42851563 -8.203125 1.48828125 C-11.25341611 2.04636524 -12.70711276 2.96369776 -15 5 C-14.65221564 8.21700528 -14.49927596 9.59150148 -11.9375 11.6875 C-11.298125 12.120625 -10.65875 12.55375 -10 13 C-10 13.66 -10 14.32 -10 15 C-11.65 15.33 -13.3 15.66 -15 16 C-15 14.35 -15 12.7 -15 11 C-15.66 11 -16.32 11 -17 11 C-17.875 8.3125 -17.875 8.3125 -18 5 C-13.18336178 -1.3304388 -7.45106704 -0.54255342 0 0 Z " fill="#0D1928" transform="translate(456,552)"/>
<path d="M0 0 C1.5625 1.5625 1.5625 1.5625 3 4 C2.77100357 7.32044817 2.4949015 10.010197 1 13 C-0.98 12.01 -2.96 11.02 -5 10 C-3.14285714 2.42857143 -3.14285714 2.42857143 0 0 Z " fill="#111E32" transform="translate(463,581)"/>
<path d="M0 0 C0.99 0.495 0.99 0.495 2 1 C3.70363822 1.22622081 5.41328701 1.40888473 7.125 1.5625 C8.03507813 1.64628906 8.94515625 1.73007813 9.8828125 1.81640625 C10.58148437 1.87699219 11.28015625 1.93757812 12 2 C12 2.33 12 2.66 12 3 C10.02 3.33 8.04 3.66 6 4 C6 4.66 6 5.32 6 6 C7.65 5.67 9.3 5.34 11 5 C11.33 5.99 11.66 6.98 12 8 C8.37 8 4.74 8 1 8 C0.67 5.36 0.34 2.72 0 0 Z " fill="#0F1C31" transform="translate(710,184)"/>
<path d="M0 0 C0.33 1.98 0.66 3.96 1 6 C-2.08809695 7.76462683 -3.23312136 8 -7 8 C-7 6.02 -7 4.04 -7 2 C-2.25 0 -2.25 0 0 0 Z " fill="#E7ECF0" transform="translate(669,182)"/>
<path d="M0 0 C0.66 0 1.32 0 2 0 C2 7.92 2 15.84 2 24 C1.01 23.67 0.02 23.34 -1 23 C-0.67 15.41 -0.34 7.82 0 0 Z " fill="#212E3B" transform="translate(926,571)"/>
<path d="M0 0 C2.88437779 1.29299694 4.87219421 2.65941363 7 5 C5.50902342 8.7952131 3.24299151 10.61042731 0 13 C-0.08226668 9.95613276 0.02391783 7.92824652 1 5 C0.34 4.67 -0.32 4.34 -1 4 C-0.67 2.68 -0.34 1.36 0 0 Z " fill="#121E2D" transform="translate(841,220)"/>
<path d="M0 0 C0.598125 0.226875 1.19625 0.45375 1.8125 0.6875 C1.8125 3.3275 1.8125 5.9675 1.8125 8.6875 C1.214375 8.3575 0.61625 8.0275 0 7.6875 C-2.24136471 6.47962012 -2.24136471 6.47962012 -5.1875 6.6875 C-5.1875 2.6875 -5.1875 2.6875 -3.9375 0.875 C-2.1875 -0.3125 -2.1875 -0.3125 0 0 Z " fill="#0B172B" transform="translate(566.1875,442.3125)"/>
<path d="M0 0 C2.41796875 0.6171875 2.41796875 0.6171875 5 2 C5.92578125 4.8203125 5.92578125 4.8203125 6.3125 8.125 C6.45300781 9.22070312 6.59351563 10.31640625 6.73828125 11.4453125 C6.82464844 12.28835938 6.91101563 13.13140625 7 14 C6.01 14.495 6.01 14.495 5 15 C4.773125 13.906875 4.54625 12.81375 4.3125 11.6875 C3.34252805 7.87511789 3.34252805 7.87511789 0.375 6.0625 C-0.40875 5.711875 -1.1925 5.36125 -2 5 C-1.34 3.35 -0.68 1.7 0 0 Z " fill="#0B1627" transform="translate(828,561)"/>
<path d="M0 0 C0.66 0 1.32 0 2 0 C2 1.32 2 2.64 2 4 C-1.10085571 6.06723714 -1.72931681 6.24497423 -5.23046875 6.1953125 C-6.03291016 6.18886719 -6.83535156 6.18242188 -7.66210938 6.17578125 C-8.49548828 6.15902344 -9.32886719 6.14226563 -10.1875 6.125 C-11.03248047 6.11597656 -11.87746094 6.10695313 -12.74804688 6.09765625 C-14.83215243 6.07410703 -16.91611217 6.03823647 -19 6 C-19 5.34 -19 4.68 -19 4 C-17.96359375 4.04640625 -16.9271875 4.0928125 -15.859375 4.140625 C-14.48961221 4.17815275 -13.11981818 4.21455184 -11.75 4.25 C-11.06808594 4.28351562 -10.38617188 4.31703125 -9.68359375 4.3515625 C-6.11307319 4.420893 -4.40268156 4.34401272 -1.640625 1.984375 C-1.09921875 1.32953125 -0.5578125 0.6746875 0 0 Z " fill="#0F1C2F" transform="translate(521,548)"/>
<path d="M0 0 C0.66 0 1.32 0 2 0 C2 0.99 2 1.98 2 3 C2.66 3.33 3.32 3.66 4 4 C4.99 4.66 5.98 5.32 7 6 C9.11280345 6.63292383 9.11280345 6.63292383 11 7 C11 7.66 11 8.32 11 9 C5.58609132 8.53328373 1.79482068 7.75702189 -3 5 C-1.625 2.5 -1.625 2.5 0 0 Z " fill="#1E2B3D" transform="translate(769,592)"/>
<path d="M0 0 C2 2 2 2 2.125 5.125 C2.08375 6.07375 2.0425 7.0225 2 8 C-1.77371512 9.3357457 -4.85831347 8.72408671 -8.75 8.0625 C-9.92046875 7.86785156 -11.0909375 7.67320312 -12.296875 7.47265625 C-13.63492188 7.23869141 -13.63492188 7.23869141 -15 7 C-15 6.67 -15 6.34 -15 6 C-14.24074219 5.95101562 -13.48148438 5.90203125 -12.69921875 5.8515625 C-11.70535156 5.77679687 -10.71148438 5.70203125 -9.6875 5.625 C-8.70136719 5.55539062 -7.71523438 5.48578125 -6.69921875 5.4140625 C-3.78471567 5.16134528 -3.78471567 5.16134528 -1 3 C-0.67 2.01 -0.34 1.02 0 0 Z " fill="#2C3747" transform="translate(796,584)"/>
<path d="M0 0 C3.79049707 1.42749981 7.27122456 3.16236542 10.8125 5.125 C12.27623047 5.93324219 12.27623047 5.93324219 13.76953125 6.7578125 C14.50558594 7.16773438 15.24164062 7.57765625 16 8 C16 8.66 16 9.32 16 10 C13.03 10 10.06 10 7 10 C7 9.34 7 8.68 7 8 C7.66 8 8.32 8 9 8 C7.07960713 5.86623014 5.23424311 4.48949541 2.8125 2.875 C1.884375 2.25625 0.95625 1.6375 0 1 C0 0.67 0 0.34 0 0 Z " fill="#0F1A2B" transform="translate(640,262)"/>
<path d="M0 0 C1.258125 -0.04125 2.51625 -0.0825 3.8125 -0.125 C4.52019531 -0.14820313 5.22789062 -0.17140625 5.95703125 -0.1953125 C8 0 8 0 11 2 C7.49223216 3.60355101 4.85645121 4.22036864 1 4 C0.67 5.32 0.34 6.64 0 8 C-0.66 7.67 -1.32 7.34 -2 7 C-1.34 4.69 -0.68 2.38 0 0 Z " fill="#0D1B30" transform="translate(655,480)"/>
<path d="M0 0 C2.0625 0.4375 2.0625 0.4375 4 1 C3 3 3 3 1 5 C-3.58314214 5.43648973 -7.05491442 5.63005705 -11 3 C-11 2.67 -11 2.34 -11 2 C-10.28972656 1.93941406 -9.57945312 1.87882813 -8.84765625 1.81640625 C-7.46900391 1.69072266 -7.46900391 1.69072266 -6.0625 1.5625 C-5.14597656 1.48128906 -4.22945312 1.40007812 -3.28515625 1.31640625 C-1.03840268 1.23955024 -1.03840268 1.23955024 0 0 Z " fill="#111E2E" transform="translate(737,246)"/>
<path d="M0 0 C0.99 0.33 1.98 0.66 3 1 C3 4.96 3 8.92 3 13 C1.68 13.33 0.36 13.66 -1 14 C-1.02685938 11.85423363 -1.04633088 9.70837355 -1.0625 7.5625 C-1.07410156 6.36753906 -1.08570313 5.17257813 -1.09765625 3.94140625 C-1 1 -1 1 0 0 Z " fill="#273447" transform="translate(611,211)"/>
<path d="M0 0 C0.33 0 0.66 0 1 0 C1 1.98 1 3.96 1 6 C4.3 6 7.6 6 11 6 C11 6.66 11 7.32 11 8 C6.38 8 1.76 8 -3 8 C-2.09456151 5.28368454 -1.07525194 2.65228812 0 0 Z " fill="#2B3642" transform="translate(863,593)"/>
<path d="M0 0 C3.875 1.75 3.875 1.75 5 4 C2.34771188 5.07525194 -0.28368454 6.09456151 -3 7 C-3.33 7.66 -3.66 8.32 -4 9 C-5.5 7.6875 -5.5 7.6875 -7 6 C-7 5.01 -7 4.02 -7 3 C-4.69 3.33 -2.38 3.66 0 4 C0 2.68 0 1.36 0 0 Z " fill="#0C1828" transform="translate(832,212)"/>
<path d="M0 0 C2.97 0 5.94 0 9 0 C9.33 0.99 9.66 1.98 10 3 C9 4 9 4 6.49609375 4.09765625 C4.98208984 4.08025391 4.98208984 4.08025391 3.4375 4.0625 C2.42558594 4.05347656 1.41367187 4.04445313 0.37109375 4.03515625 C-0.41136719 4.02355469 -1.19382812 4.01195312 -2 4 C-1.34 2.68 -0.68 1.36 0 0 Z " fill="#0A1528" transform="translate(687,444)"/>
<path d="M0 0 C0.99 0.33 1.98 0.66 3 1 C2.72285156 1.49628906 2.44570313 1.99257812 2.16015625 2.50390625 C-0.28687676 7.09318168 -1.56796643 10.81559721 -2 16 C-3.85163386 13.27700903 -3.99554719 11.91836514 -3.8125 8.5625 C-3.02560366 5.11226222 -2.00780255 2.88076018 0 0 Z " fill="#101C2B" transform="translate(585,228)"/>
<path d="M0 0 C-2.25740623 2.33524782 -4.2805761 4.18705073 -7 6 C-9.6875 5.625 -9.6875 5.625 -12 5 C-12 3.68 -12 2.36 -12 1 C-10.37681021 0.63762737 -8.7513642 0.28534843 -7.125 -0.0625 C-6.22007812 -0.25972656 -5.31515625 -0.45695313 -4.3828125 -0.66015625 C-2 -1 -2 -1 0 0 Z " fill="#0B182B" transform="translate(780,182)"/>
<path d="M0 0 C0.33 1.32 0.66 2.64 1 4 C1.66 4 2.32 4 3 4 C3 7.96 3 11.92 3 16 C2.01 16 1.02 16 0 16 C0 10.72 0 5.44 0 0 Z " fill="#081223" transform="translate(916,571)"/>
<path d="M0 0 C2.77042109 2.77042109 2.39796106 4.76533805 2.625 8.625 C2.69976562 9.81351563 2.77453125 11.00203125 2.8515625 12.2265625 C2.92503906 13.59941406 2.92503906 13.59941406 3 15 C2.01 15.495 2.01 15.495 1 16 C-1.25929298 11.48141403 -1.23967948 7.95337583 -1 3 C-0.67 2.01 -0.34 1.02 0 0 Z " fill="#2B3342" transform="translate(428,553)"/>
<path d="M0 0 C0 0.66 0 1.32 0 2 C2.31 2.33 4.62 2.66 7 3 C7 3.33 7 3.66 7 4 C2 4 -3 4 -8 4 C-7.67 3.01 -7.34 2.02 -7 1 C-4 0 -4 0 0 0 Z " fill="#15202F" transform="translate(735,420)"/>
<path d="M0 0 C1.67542976 0.28604898 3.34385343 0.61781233 5 1 C5 1.66 5 2.32 5 3 C1.71480525 4.09506492 -0.73663415 4.09960608 -4.1875 4.0625 C-5.81751953 4.04896484 -5.81751953 4.04896484 -7.48046875 4.03515625 C-8.31191406 4.02355469 -9.14335938 4.01195312 -10 4 C-9.67 3.34 -9.34 2.68 -9 2 C-7.1875 1.62109375 -7.1875 1.62109375 -5 1.4375 C-2.21067942 1.37334592 -2.21067942 1.37334592 0 0 Z " fill="#0B1B2E" transform="translate(713,292)"/>
<path d="M0 0 C0.66 0 1.32 0 2 0 C2.33 1.98 2.66 3.96 3 6 C5.64 6.33 8.28 6.66 11 7 C11 7.33 11 7.66 11 8 C7.37 8 3.74 8 0 8 C-0.66 6.35 -1.32 4.7 -2 3 C-1.34 2.01 -0.68 1.02 0 0 Z " fill="#091525" transform="translate(574,592)"/>
<path d="M0 0 C5.61 0.66 11.22 1.32 17 2 C13.2632157 4.49118953 11.25548181 4.2065226 6.8125 4.125 C5.54019531 4.10695313 4.26789062 4.08890625 2.95703125 4.0703125 C1.49330078 4.03550781 1.49330078 4.03550781 0 4 C0 2.68 0 1.36 0 0 Z " fill="#061022" transform="translate(896,588)"/>
<path d="M0 0 C2.70583756 0.25560029 5.37210774 0.56759978 8.0625 0.9375 C9.20041992 1.08735352 9.20041992 1.08735352 10.36132812 1.24023438 C12.24154246 1.48856457 14.12086128 1.74365751 16 2 C16 2.33 16 2.66 16 3 C12.70840684 3.05790353 9.41694397 3.09356261 6.125 3.125 C4.71927734 3.15013672 4.71927734 3.15013672 3.28515625 3.17578125 C1.94130859 3.18544922 1.94130859 3.18544922 0.5703125 3.1953125 C-0.25710449 3.20578613 -1.08452148 3.21625977 -1.93701172 3.22705078 C-4 3 -4 3 -6 1 C-4.7934375 1.0309375 -4.7934375 1.0309375 -3.5625 1.0625 C-1.06645115 1.29633621 -1.06645115 1.29633621 0 0 Z " fill="#050E21" transform="translate(775,589)"/>
<path d="M0 0 C3.80802445 1.4960096 5.69424557 3.66063151 8 7 C8.875 9.125 8.875 9.125 9 11 C8.01 12.485 8.01 12.485 7 14 C6.34 11.03 5.68 8.06 5 5 C3.68 4.67 2.36 4.34 1 4 C0.67 2.68 0.34 1.36 0 0 Z " fill="#19222F" transform="translate(578,547)"/>
<path d="M0 0 C1.98 0 3.96 0 6 0 C6.5625 1.9375 6.5625 1.9375 7 4 C6 5 6 5 2.4375 5.0625 C1.303125 5.041875 0.16875 5.02125 -1 5 C-0.67 3.35 -0.34 1.7 0 0 Z " fill="#0C192D" transform="translate(713,443)"/>
<path d="M0 0 C1.134375 0.020625 2.26875 0.04125 3.4375 0.0625 C3.4375 1.0525 3.4375 2.0425 3.4375 3.0625 C5.7475 3.3925 8.0575 3.7225 10.4375 4.0625 C10.1075 4.7225 9.7775 5.3825 9.4375 6.0625 C7.66489369 5.61107225 5.8944632 5.15109477 4.125 4.6875 C2.64580078 4.30464844 2.64580078 4.30464844 1.13671875 3.9140625 C-1.5625 3.0625 -1.5625 3.0625 -4.5625 1.0625 C-3.5625 0.0625 -3.5625 0.0625 0 0 Z " fill="#1F2837" transform="translate(667.5625,369.9375)"/>
<path d="M0 0 C1.5625 1.125 1.5625 1.125 3 3 C2.73953443 6.99380545 1.60789264 10.35544334 0 14 C-0.33 14 -0.66 14 -1 14 C-1.027193 12.41676312 -1.04648306 10.83338938 -1.0625 9.25 C-1.07410156 8.36828125 -1.08570313 7.4865625 -1.09765625 6.578125 C-1.00826198 4.2181162 -0.66912821 2.25501476 0 0 Z " fill="#0E1C2F" transform="translate(825,363)"/>
<path d="M0 0 C4.70588235 0.70588235 4.70588235 0.70588235 6 2 C6.04063832 3.66617115 6.042721 5.33388095 6 7 C3.0625 6.25 3.0625 6.25 0 5 C-0.9375 2.9375 -0.9375 2.9375 -1 1 C-0.67 0.67 -0.34 0.34 0 0 Z " fill="#0C182B" transform="translate(762,251)"/>
<path d="M0 0 C1.98 1.32 3.96 2.64 6 4 C5.01 5.485 5.01 5.485 4 7 C3.443125 6.855625 2.88625 6.71125 2.3125 6.5625 C-0.11384195 5.97230872 -2.54906345 5.476571 -5 5 C-3.35 3.35 -1.7 1.7 0 0 Z " fill="#192334" transform="translate(522,583)"/>
<path d="M0 0 C0 3.69349436 -0.88153908 5.00493457 -3 8 C-5.81389374 10.52528925 -8.54485081 12.46437814 -12 14 C-10.41332422 10.09714233 -7.86649519 7.66479018 -4.875 4.75 C-3.96492187 3.85796875 -3.05484375 2.9659375 -2.1171875 2.046875 C-1.41851563 1.37140625 -0.71984375 0.6959375 0 0 Z " fill="#0C1825" transform="translate(586,419)"/>
<path d="M0 0 C0.33 0 0.66 0 1 0 C1 4.62 1 9.24 1 14 C0.01 13.67 -0.98 13.34 -2 13 C-1.979375 11.88625 -1.95875 10.7725 -1.9375 9.625 C-1.73619282 6.16784079 -1.73619282 6.16784079 -3 4 C-2.02727325 2.64664105 -1.0260734 1.31337396 0 0 Z " fill="#09172A" transform="translate(631,194)"/>
<path d="M0 0 C0.33 0 0.66 0 1 0 C1 2.64 1 5.28 1 8 C1.66 8 2.32 8 3 8 C2.625 10.4375 2.625 10.4375 2 13 C1.01 13.495 1.01 13.495 0 14 C-0.99293628 11.02119115 -1.13406411 8.98398802 -1.125 5.875 C-1.12757813 4.98554688 -1.13015625 4.09609375 -1.1328125 3.1796875 C-1 1 -1 1 0 0 Z " fill="#0E1B31" transform="translate(777,464)"/>
<path d="M0 0 C0.66 0 1.32 0 2 0 C2 0.66 2 1.32 2 2 C2.99 2.33 3.98 2.66 5 3 C3.35 4.65 1.7 6.3 0 8 C0 7.34 0 6.68 0 6 C-1.32 5.34 -2.64 4.68 -4 4 C-3.34 3.525625 -2.68 3.05125 -2 2.5625 C-1.34 2.046875 -0.68 1.53125 0 1 C0 0.67 0 0.34 0 0 Z " fill="#0F1D33" transform="translate(660,419)"/>
<path d="M0 0 C1.31571603 0.2547514 2.62760376 0.52934141 3.9375 0.8125 C4.66839844 0.96332031 5.39929688 1.11414063 6.15234375 1.26953125 C6.76207031 1.51058594 7.37179687 1.75164062 8 2 C8.33 2.99 8.66 3.98 9 5 C5.57056481 6.18771723 3.62215325 5.80226223 0.25 4.5625 C-0.54921875 4.27503906 -1.3484375 3.98757813 -2.171875 3.69140625 C-2.77515625 3.46324219 -3.3784375 3.23507812 -4 3 C-2.68 2.67 -1.36 2.34 0 2 C0 1.34 0 0.68 0 0 Z " fill="#232D3D" transform="translate(711,384)"/>
<path d="M0 0 C2.9375 0.6875 2.9375 0.6875 4.9375 1.6875 C4.9375 2.3475 4.9375 3.0075 4.9375 3.6875 C0.6475 3.6875 -3.6425 3.6875 -8.0625 3.6875 C-3.96990741 -0.40509259 -3.96990741 -0.40509259 0 0 Z " fill="#07152A" transform="translate(693.0625,284.3125)"/>
<path d="M0 0 C0.66 0.33 1.32 0.66 2 1 C-0.31 4.3 -2.62 7.6 -5 11 C-5.33 10.01 -5.66 9.02 -6 8 C-6.66 8 -7.32 8 -8 8 C-8 7.34 -8 6.68 -8 6 C-6.25 4.4921875 -6.25 4.4921875 -4 2.875 C-3.2575 2.33617187 -2.515 1.79734375 -1.75 1.2421875 C-1.1725 0.83226562 -0.595 0.42234375 0 0 Z " fill="#232831" transform="translate(623,187)"/>
<path d="M0 0 C0.33 0.99 0.66 1.98 1 3 C0 4 0 4 -2.94140625 4.09765625 C-4.73384766 4.08025391 -4.73384766 4.08025391 -6.5625 4.0625 C-8.35880859 4.04896484 -8.35880859 4.04896484 -10.19140625 4.03515625 C-11.11824219 4.02355469 -12.04507813 4.01195312 -13 4 C-12.67 3.01 -12.34 2.02 -12 1 C-8.04 1.33 -4.08 1.66 0 2 C0 1.34 0 0.68 0 0 Z " fill="#323944" transform="translate(824,597)"/>
<path d="M0 0 C3.63 0.33 7.26 0.66 11 1 C11 1.66 11 2.32 11 3 C7.04 3.66 3.08 4.32 -1 5 C-0.67 3.35 -0.34 1.7 0 0 Z " fill="#0B192D" transform="translate(624,485)"/>
<path d="M0 0 C1 1 1 1 1.0625 4.5625 C1.041875 5.696875 1.02125 6.83125 1 8 C0.67 7.01 0.34 6.02 0 5 C-2.10584438 4.19436362 -2.10584438 4.19436362 -4.5625 3.8125 C-5.38878906 3.65394531 -6.21507812 3.49539063 -7.06640625 3.33203125 C-7.70449219 3.22246094 -8.34257813 3.11289062 -9 3 C-5.94805196 0.2871573 -4.08353283 -0.44146301 0 0 Z " fill="#1D2A3B" transform="translate(668,482)"/>
<path d="M0 0 C3.96 0 7.92 0 12 0 C11.34 1.32 10.68 2.64 10 4 C6.875 4.75 6.875 4.75 4 5 C3.67 4.01 3.34 3.02 3 2 C2.01 1.34 1.02 0.68 0 0 Z " fill="#2D394A" transform="translate(712,185)"/>
<path d="M0 0 C0 0.33 0 0.66 0 1 C-1.0725 1.12375 -2.145 1.2475 -3.25 1.375 C-6.37863615 1.89643936 -8.33480424 2.40088254 -11 4 C-11 3.34 -11 2.68 -11 2 C-11.99 2.33 -12.98 2.66 -14 3 C-14.66 2.34 -15.32 1.68 -16 1 C-10.10106757 -0.79074734 -6.06820868 -1.08360869 0 0 Z " fill="#273142" transform="translate(679,171)"/>
<path d="M0 0 C0.99 0.66 1.98 1.32 3 2 C2.34 4.31 1.68 6.62 1 9 C-1.78823655 10.0326802 -2.8677274 10.04509293 -5.75 9.0625 C-6.4925 8.711875 -7.235 8.36125 -8 8 C-8 7.67 -8 7.34 -8 7 C-5.36 7.33 -2.72 7.66 0 8 C0 5.36 0 2.72 0 0 Z " fill="#222A37" transform="translate(803,547)"/>
<path d="M0 0 C0.66 0.99 1.32 1.98 2 3 C-2.455 5.97 -2.455 5.97 -7 9 C-7 5.0480185 -5.62823828 3.85351584 -3 1 C-2.01 0.67 -1.02 0.34 0 0 Z " fill="#2D333D" transform="translate(788,482)"/>
<path d="M0 0 C1.98 0.66 3.96 1.32 6 2 C6.33 3.65 6.66 5.3 7 7 C6.01 7.495 6.01 7.495 5 8 C5 7.34 5 6.68 5 6 C3.35 5.67 1.7 5.34 0 5 C0.33 4.01 0.66 3.02 1 2 C0.67 1.34 0.34 0.68 0 0 Z " fill="#0B162A" transform="translate(640,410)"/>
<path d="M0 0 C1.2065625 0.0309375 1.2065625 0.0309375 2.4375 0.0625 C2.4375 1.0525 2.4375 2.0425 2.4375 3.0625 C3.0975 3.7225 3.7575 4.3825 4.4375 5.0625 C2.1275 5.3925 -0.1825 5.7225 -2.5625 6.0625 C-2.94468767 4.40635343 -3.27645102 2.73792976 -3.5625 1.0625 C-2.5625 0.0625 -2.5625 0.0625 0 0 Z " fill="#0F1E33" transform="translate(667.5625,231.9375)"/>
<path d="M0 0 C0.66 0.33 1.32 0.66 2 1 C2.4140625 3.50390625 2.4140625 3.50390625 2.625 6.5625 C2.69976563 7.57441406 2.77453125 8.58632813 2.8515625 9.62890625 C2.92503906 10.80259766 2.92503906 10.80259766 3 12 C1 10.4375 1 10.4375 -1 8 C-1.3125 4.3125 -1.3125 4.3125 -1 1 C-0.67 0.67 -0.34 0.34 0 0 Z " fill="#050E21" transform="translate(766,558)"/>
<path d="M0 0 C4.62 0 9.24 0 14 0 C14 0.33 14 0.66 14 1 C9.71 1 5.42 1 1 1 C1 2.98 1 4.96 1 7 C-0.98 7.99 -0.98 7.99 -3 9 C-2.01 6.03 -1.02 3.06 0 0 Z " fill="#212936" transform="translate(835,543)"/>
<path d="M0 0 C0.99 0.33 1.98 0.66 3 1 C3 2.65 3 4.3 3 6 C1.68 6.33 0.36 6.66 -1 7 C-1.66 5.35 -2.32 3.7 -3 2 C-2.01 1.34 -1.02 0.68 0 0 Z " fill="#DEE2E7" transform="translate(758,420)"/>
<path d="M0 0 C0.33 0 0.66 0 1 0 C1 2.64 1 5.28 1 8 C0.34 8 -0.32 8 -1 8 C-1.33 9.98 -1.66 11.96 -2 14 C-2.33 14 -2.66 14 -3 14 C-3.56359649 4.41885965 -3.56359649 4.41885965 0 0 Z " fill="#323947" transform="translate(767,551)"/>
<path d="M0 0 C0.33 0.66 0.66 1.32 1 2 C2.175625 2.185625 2.175625 2.185625 3.375 2.375 C6 3 6 3 7.8125 5.0625 C8.204375 5.701875 8.59625 6.34125 9 7 C8.01 7.495 8.01 7.495 7 8 C6.67 7.34 6.34 6.68 6 6 C3.0262656 4.90963072 2.11592499 4.96135834 -1 6 C-1.042721 4.33388095 -1.04063832 2.66617115 -1 1 C-0.67 0.67 -0.34 0.34 0 0 Z " fill="#101D31" transform="translate(617,242)"/>
<path d="M0 0 C0.66 0 1.32 0 2 0 C2.33 1.98 2.66 3.96 3 6 C0 7 0 7 -3 6 C-1.125 1.125 -1.125 1.125 0 0 Z " fill="#121B2E" transform="translate(464,550)"/>
<path d="M0 0 C0.66 0.33 1.32 0.66 2 1 C1.67 2.32 1.34 3.64 1 5 C-1.875 5.125 -1.875 5.125 -5 5 C-5.66 4.34 -6.32 3.68 -7 3 C-4.69631264 1.93347808 -2.35981813 0.93578995 0 0 Z " fill="#121D2E" transform="translate(744,435)"/>
<path d="M0 0 C0.90105469 0.00902344 1.80210937 0.01804687 2.73046875 0.02734375 C3.41753906 0.03894531 4.10460937 0.05054688 4.8125 0.0625 C4.8125 0.7225 4.8125 1.3825 4.8125 2.0625 C-1.1275 2.5575 -1.1275 2.5575 -7.1875 3.0625 C-7.5175 2.4025 -7.8475 1.7425 -8.1875 1.0625 C-5.17259443 0.05753148 -3.14568308 -0.04085303 0 0 Z " fill="#0D1A2E" transform="translate(667.1875,367.9375)"/>
<path d="M0 0 C2.97 0.495 2.97 0.495 6 1 C6 1.99 6 2.98 6 4 C2.37 4 -1.26 4 -5 4 C-3.68 3.34 -2.36 2.68 -1 2 C-0.67 1.34 -0.34 0.68 0 0 Z " fill="#0B152A" transform="translate(737,300)"/>
<path d="M0 0 C0.33 1.32 0.66 2.64 1 4 C-2.63 4 -6.26 4 -10 4 C-10 3.34 -10 2.68 -10 2 C-9.04287109 1.90912109 -9.04287109 1.90912109 -8.06640625 1.81640625 C-6.82697266 1.69072266 -6.82697266 1.69072266 -5.5625 1.5625 C-4.73878906 1.48128906 -3.91507813 1.40007812 -3.06640625 1.31640625 C-1.01337975 1.21069185 -1.01337975 1.21069185 0 0 Z " fill="#0B1A2F" transform="translate(807,212)"/>
<path d="M0 0 C0.99 0.33 1.98 0.66 3 1 C2.01 2.98 1.02 4.96 0 7 C-1.65 6.67 -3.3 6.34 -5 6 C-3.35 4.02 -1.7 2.04 0 0 Z " fill="#212B39" transform="translate(638,185)"/>
<path d="M0 0 C0 2.31 0 4.62 0 7 C-2.97 6.505 -2.97 6.505 -6 6 C-5.1875 3.5625 -5.1875 3.5625 -4 1 C-1 0 -1 0 0 0 Z " fill="#09182D" transform="translate(576,569)"/>
<path d="M0 0 C0.66 1.32 1.32 2.64 2 4 C2.33 3.34 2.66 2.68 3 2 C3.99 3.485 3.99 3.485 5 5 C-1.52307692 5.36923077 -1.52307692 5.36923077 -3.9375 3.5 C-4.4634375 2.7575 -4.4634375 2.7575 -5 2 C-2 0 -2 0 0 0 Z " fill="#0B182C" transform="translate(769,427)"/>
<path d="M0 0 C0.86625 0.3403125 0.86625 0.3403125 1.75 0.6875 C1.42 2.6675 1.09 4.6475 0.75 6.6875 C-2.715 4.7075 -2.715 4.7075 -6.25 2.6875 C-2.80384615 -0.38942308 -2.80384615 -0.38942308 0 0 Z " fill="#111C2E" transform="translate(807.25,199.3125)"/>
<path d="M0 0 C0.99 0.33 1.98 0.66 3 1 C2.01 4.96 1.02 8.92 0 13 C-0.33 13 -0.66 13 -1 13 C-1.02686553 11.02090602 -1.04633375 9.04171029 -1.0625 7.0625 C-1.07410156 5.96035156 -1.08570313 4.85820313 -1.09765625 3.72265625 C-1 1 -1 1 0 0 Z " fill="#0C192E" transform="translate(489,560)"/>
<path d="M0 0 C0.99 0.33 1.98 0.66 3 1 C3.33 1.99 3.66 2.98 4 4 C0.37 4 -3.26 4 -7 4 C-7 3.34 -7 2.68 -7 2 C-4.69 2 -2.38 2 0 2 C0 1.34 0 0.68 0 0 Z " fill="#0B182C" transform="translate(759,308)"/>
<path d="M0 0 C0.99 0.33 1.98 0.66 3 1 C3.6875 3.0625 3.6875 3.0625 4 5 C2.68 5.33 1.36 5.66 0 6 C-0.66 4.68 -1.32 3.36 -2 2 C-1.34 1.34 -0.68 0.68 0 0 Z " fill="#E9F1F3" transform="translate(648,248)"/>
<path d="M0 0 C1.66666667 0 3.33333333 0 5 0 C5 2.31 5 4.62 5 7 C4.01 7 3.02 7 2 7 C1.34 4.69 0.68 2.38 0 0 Z " fill="#0D192B" transform="translate(787,432)"/>
<path d="M0 0 C2.31 0 4.62 0 7 0 C6.6875 2.375 6.6875 2.375 6 5 C5.01 5.66 4.02 6.32 3 7 C2.87625 6.360625 2.7525 5.72125 2.625 5.0625 C2.315625 4.0415625 2.315625 4.0415625 2 3 C1.34 2.67 0.68 2.34 0 2 C0 1.34 0 0.68 0 0 Z " fill="#111D31" transform="translate(832,232)"/>
<path d="M0 0 C0 0.99 0 1.98 0 3 C-3.63 3 -7.26 3 -11 3 C-11 2.34 -11 1.68 -11 1 C-9.54182203 0.83197949 -8.0834516 0.66562857 -6.625 0.5 C-5.81289063 0.4071875 -5.00078125 0.314375 -4.1640625 0.21875 C-2 0 -2 0 0 0 Z " fill="#0F192B" transform="translate(752,189)"/>
<path d="M0 0 C0.99 0.99 1.98 1.98 3 3 C2.67 3.33 2.34 3.66 2 4 C1.95907063 6.33297433 1.95758277 8.66705225 2 11 C0.68 10.01 -0.64 9.02 -2 8 C-1.34 5.36 -0.68 2.72 0 0 Z " fill="#08182E" transform="translate(463,583)"/>
<path d="M0 0 C0.33 0 0.66 0 1 0 C1 3.3 1 6.6 1 10 C0.01 9.67 -0.98 9.34 -2 9 C-1.125 1.125 -1.125 1.125 0 0 Z " fill="#0C1729" transform="translate(670,486)"/>
<path d="M0 0 C1.32 0.33 2.64 0.66 4 1 C4 1.66 4 2.32 4 3 C3.01 3 2.02 3 1 3 C1.33 4.32 1.66 5.64 2 7 C0.35 6.67 -1.3 6.34 -3 6 C-2.01 4.02 -1.02 2.04 0 0 Z " fill="#0E1829" transform="translate(789,477)"/>
<path d="M0 0 C2.72869407 0.03287583 5.2966618 0.56397771 8 1 C7.67 1.99 7.34 2.98 7 4 C7.66 4.33 8.32 4.66 9 5 C6.04725901 5 4.50941597 4.56108169 1.8125 3.5 C1.09707031 3.2215625 0.38164063 2.943125 -0.35546875 2.65625 C-0.89816406 2.4396875 -1.44085937 2.223125 -2 2 C-1.34 1.34 -0.68 0.68 0 0 Z " fill="#1F2A39" transform="translate(766,241)"/>
<path d="M0 0 C0.99 0 1.98 0 3 0 C3.25 2.3125 3.25 2.3125 3 5 C1 6.8125 1 6.8125 -1 8 C-2.2077558 4.37673261 -1.54311128 3.35853631 0 0 Z " fill="#1F2A3A" transform="translate(627,199)"/>
<path d="M0 0 C0.268125 0.61875 0.53625 1.2375 0.8125 1.875 C1.95556848 4.2995233 1.95556848 4.2995233 5 6 C5 6.66 5 7.32 5 8 C0.125 7.125 0.125 7.125 -1 6 C-1.125 3.5 -1.125 3.5 -1 1 C-0.67 0.67 -0.34 0.34 0 0 Z " fill="#0C1425" transform="translate(609,408)"/>
<path d="M0 0 C0.78375 0.495 1.5675 0.99 2.375 1.5 C4.78552327 3.16537965 4.78552327 3.16537965 7 3 C6.67 4.65 6.34 6.3 6 8 C3.69 6.02 1.38 4.04 -1 2 C-0.67 1.34 -0.34 0.68 0 0 Z " fill="#212D3A" transform="translate(617,405)"/>
<path d="M0 0 C4.455 0.99 4.455 0.99 9 2 C8.67 2.99 8.34 3.98 8 5 C5.03 4.01 2.06 3.02 -1 2 C-0.67 1.34 -0.34 0.68 0 0 Z " fill="#212B3A" transform="translate(723,390)"/>
<path d="M0 0 C0.33 0.66 0.66 1.32 1 2 C1.99 2 2.98 2 4 2 C4 2.66 4 3.32 4 4 C2.63875 3.9690625 2.63875 3.9690625 1.25 3.9375 C-1.42672588 3.9889755 -3.46988052 4.2215017 -6 5 C-2.25 1.125 -2.25 1.125 0 0 Z " fill="#0C1628" transform="translate(716,348)"/>
<path d="M0 0 C1.65 0.33 3.3 0.66 5 1 C5 2.32 5 3.64 5 5 C2.83125748 4.49396008 1.00032373 4.00016187 -1 3 C-0.67 2.01 -0.34 1.02 0 0 Z " fill="#0C192E" transform="translate(731,339)"/>
<path d="M0 0 C1 3 1 3 0 6 C-1.9375 5.1875 -1.9375 5.1875 -4 4 C-4.33 3.01 -4.66 2.02 -5 1 C-2 0 -2 0 0 0 Z " fill="#0C182C" transform="translate(600,328)"/>
<path d="M0 0 C0.33 0 0.66 0 1 0 C1 1.98 1 3.96 1 6 C-0.65 6.33 -2.3 6.66 -4 7 C-4.33 6.34 -4.66 5.68 -5 5 C-4.34 5 -3.68 5 -3 5 C-2.5359375 4.0409375 -2.5359375 4.0409375 -2.0625 3.0625 C-1 1 -1 1 0 0 Z " fill="#0F192B" transform="translate(831,225)"/>
<path d="M0 0 C0.99 0.66 1.98 1.32 3 2 C2.1875 3.9375 2.1875 3.9375 1 6 C0.01 6.33 -0.98 6.66 -2 7 C-2 5.02 -2 3.04 -2 1 C-1.34 0.67 -0.68 0.34 0 0 Z " fill="#0F1B2B" transform="translate(826,587)"/>
<path d="M0 0 C4.95 0.99 4.95 0.99 10 2 C10 2.33 10 2.66 10 3 C6.7 3 3.4 3 0 3 C0 2.01 0 1.02 0 0 Z " fill="#0C1628" transform="translate(657,493)"/>
<path d="M0 0 C0.66 0 1.32 0 2 0 C2 0.99 2 1.98 2 3 C1.38125 3.28875 0.7625 3.5775 0.125 3.875 C-2.13325765 4.93720042 -2.13325765 4.93720042 -4 7 C-4.33 6.01 -4.66 5.02 -5 4 C-5.66 3.67 -6.32 3.34 -7 3 C-3.535 2.505 -3.535 2.505 0 2 C0 1.34 0 0.68 0 0 Z " fill="#243042" transform="translate(724,439)"/>
<path d="M0 0 C0.33 1.98 0.66 3.96 1 6 C-2.36720387 4.60667426 -3.9859524 3.0210714 -6 0 C-3 -1 -3 -1 0 0 Z " fill="#0D192B" transform="translate(608,337)"/>
<path d="M0 0 C0.99 0 1.98 0 3 0 C3 1.98 3 3.96 3 6 C0.525 5.01 0.525 5.01 -2 4 C-1.34 2.68 -0.68 1.36 0 0 Z " fill="#0E1A2D" transform="translate(701,304)"/>
<path d="M0 0 C0.66 0 1.32 0 2 0 C2.268125 0.639375 2.53625 1.27875 2.8125 1.9375 C3.88667752 4.33131686 3.88667752 4.33131686 7 5 C6.67 5.99 6.34 6.98 6 8 C3.36 6.02 0.72 4.04 -2 2 C-1.34 1.34 -0.68 0.68 0 0 Z " fill="#262A36" transform="translate(644,249)"/>
<path d="M0 0 C1.41377341 2.63904371 2.37240135 5.07120629 3 8 C1.68 7.67 0.36 7.34 -1 7 C-1.04254356 5.00045254 -1.04080783 2.99958364 -1 1 C-0.67 0.67 -0.34 0.34 0 0 Z " fill="#0A1826" transform="translate(737,183)"/>
<path d="M0 0 C0.66 0 1.32 0 2 0 C2 2.31 2 4.62 2 7 C0.68 7 -0.64 7 -2 7 C-2.125 4.625 -2.125 4.625 -2 2 C-1.34 1.34 -0.68 0.68 0 0 Z " fill="#0A192F" transform="translate(726,176)"/>
<path d="M0 0 C0 1.32 0 2.64 0 4 C-3.3 4 -6.6 4 -10 4 C-10 3.67 -10 3.34 -10 3 C-9.05125 2.690625 -8.1025 2.38125 -7.125 2.0625 C-1.05882353 0 -1.05882353 0 0 0 Z " fill="#0C1A2E" transform="translate(855,583)"/>
<path d="M0 0 C0.66 0 1.32 0 2 0 C2 1.65 2 3.3 2 5 C0.35 5.33 -1.3 5.66 -3 6 C-3 4.35 -3 2.7 -3 1 C-2.01 1.495 -2.01 1.495 -1 2 C-0.67 1.34 -0.34 0.68 0 0 Z " fill="#0A172D" transform="translate(726,488)"/>
<path d="M0 0 C0.99 0.33 1.98 0.66 3 1 C2.67 4.96 2.34 8.92 2 13 C1.67 13 1.34 13 1 13 C0.67 8.71 0.34 4.42 0 0 Z " fill="#0E1A2C" transform="translate(793,448)"/>
<path d="M0 0 C2.31 0.66 4.62 1.32 7 2 C7 2.66 7 3.32 7 4 C4.69 3.67 2.38 3.34 0 3 C0 2.01 0 1.02 0 0 Z " fill="#111A2A" transform="translate(634,428)"/>
<path d="M0 0 C2.97 0.495 2.97 0.495 6 1 C5.01 1.495 5.01 1.495 4 2 C4 2.66 4 3.32 4 4 C2.35 4 0.7 4 -1 4 C-0.67 2.68 -0.34 1.36 0 0 Z " fill="#0E1A2C" transform="translate(666,421)"/>
<path d="M0 0 C3.68266103 0.59950296 7.34543185 1.24758891 11 2 C8 4 8 4 5.95703125 3.7578125 C3.97135417 3.171875 1.98567708 2.5859375 0 2 C0 1.34 0 0.68 0 0 Z " fill="#262F3E" transform="translate(698,382)"/>
<path d="M0 0 C0.33 0.66 0.66 1.32 1 2 C-2.3 2.33 -5.6 2.66 -9 3 C-7.14340032 -0.71319936 -3.69365381 -0.09982848 0 0 Z " fill="#111D2B" transform="translate(693,248)"/>
<path d="M0 0 C2.125 0.375 2.125 0.375 4 1 C3.0409375 1.6496875 3.0409375 1.6496875 2.0625 2.3125 C-0.26746003 3.91239177 -0.26746003 3.91239177 -1 7 C-1.66 7 -2.32 7 -3 7 C-2.25 2.25 -2.25 2.25 0 0 Z " fill="#DEE3EA" transform="translate(764,243)"/>
<path d="M0 0 C2.475 0.99 2.475 0.99 5 2 C4.67 2.99 4.34 3.98 4 5 C-0.455 4.01 -0.455 4.01 -5 3 C-4.01 2.34 -3.02 1.68 -2 1 C-1.34 1.33 -0.68 1.66 0 2 C0 1.34 0 0.68 0 0 Z " fill="#101B2E" transform="translate(823,205)"/>
<path d="M0 0 C0.66 0 1.32 0 2 0 C1.67 2.97 1.34 5.94 1 9 C0.34 9 -0.32 9 -1 9 C-0.67 6.03 -0.34 3.06 0 0 Z " fill="#0D192C" transform="translate(865,583)"/>
<path d="M0 0 C4.62 0 9.24 0 14 0 C14.33 0.99 14.66 1.98 15 3 C14.01 2.67 13.02 2.34 12 2 C9.94106379 1.77674186 7.87766347 1.59294241 5.8125 1.4375 C4.72582031 1.35371094 3.63914062 1.26992188 2.51953125 1.18359375 C1.68808594 1.12300781 0.85664062 1.06242188 0 1 C0 0.67 0 0.34 0 0 Z " fill="#061121" transform="translate(552,583)"/>
<path d="M0 0 C3.93673644 1.31224548 6.22719294 2.91910327 9 6 C8.01 6.33 7.02 6.66 6 7 C5.566875 6.360625 5.13375 5.72125 4.6875 5.0625 C3.08760823 2.73253997 3.08760823 2.73253997 0 2 C0 1.34 0 0.68 0 0 Z " fill="#222B37" transform="translate(798,569)"/>
<path d="M0 0 C2.97 0.495 2.97 0.495 6 1 C6 1.66 6 2.32 6 3 C7.32 3.33 8.64 3.66 10 4 C8.375 4.75 8.375 4.75 6 5 C2.75 3.125 2.75 3.125 0 1 C0 0.67 0 0.34 0 0 Z " fill="#272F3D" transform="translate(431,570)"/>
<path d="M0 0 C0.99 0 1.98 0 3 0 C2.67 1.32 2.34 2.64 2 4 C0.35 4.33 -1.3 4.66 -3 5 C-1.6875 2.5 -1.6875 2.5 0 0 Z " fill="#1F2839" transform="translate(882,552)"/>
<path d="M0 0 C-2.97 2.475 -2.97 2.475 -6 5 C-6.66 4.67 -7.32 4.34 -8 4 C-8 3.01 -8 2.02 -8 1 C-2.25 -1.125 -2.25 -1.125 0 0 Z " fill="#15212D" transform="translate(798,479)"/>
<path d="M0 0 C1.65 0.33 3.3 0.66 5 1 C4.01 2.32 3.02 3.64 2 5 C0.68 4.34 -0.64 3.68 -2 3 C-1.34 2.01 -0.68 1.02 0 0 Z " fill="#0B1728" transform="translate(800,471)"/>
<path d="M0 0 C1.98 0.66 3.96 1.32 6 2 C6.33 3.65 6.66 5.3 7 7 C6.67 6.34 6.34 5.68 6 5 C5.0409375 4.5359375 5.0409375 4.5359375 4.0625 4.0625 C2 3 2 3 0 0 Z " fill="#0C1524" transform="translate(585,447)"/>
<path d="M0 0 C0.99 0 1.98 0 3 0 C3.33 2.31 3.66 4.62 4 7 C3.01 6.67 2.02 6.34 1 6 C0.67 4.02 0.34 2.04 0 0 Z " fill="#1E2A39" transform="translate(777,439)"/>
<path d="M0 0 C2.31 0 4.62 0 7 0 C6.67 0.99 6.34 1.98 6 3 C3.9375 3.6875 3.9375 3.6875 2 4 C2 3.34 2 2.68 2 2 C1.34 2 0.68 2 0 2 C0 1.34 0 0.68 0 0 Z " fill="#08182D" transform="translate(633,416)"/>
<path d="M0 0 C0.99 0.33 1.98 0.66 3 1 C3.33 3.31 3.66 5.62 4 8 C3.01 8 2.02 8 1 8 C0.67 5.36 0.34 2.72 0 0 Z " fill="#08162C" transform="translate(614,392)"/>
<path d="M0 0 C0.33 0.99 0.66 1.98 1 3 C0.4225 3.12375 -0.155 3.2475 -0.75 3.375 C-3.02335767 4.00648824 -4.9253529 4.88858191 -7 6 C-6.75 4.125 -6.75 4.125 -6 2 C-3.85331506 0.61504198 -2.56128588 0 0 0 Z " fill="#0F1B2A" transform="translate(703,357)"/>
<path d="M0 0 C1.32 0.33 2.64 0.66 4 1 C2.8125 3 2.8125 3 1 5 C-1.6875 5.25 -1.6875 5.25 -4 5 C-2.68 4.34 -1.36 3.68 0 3 C0 2.01 0 1.02 0 0 Z " fill="#091428" transform="translate(737,246)"/>
<path d="M0 0 C3.16115776 1.36983503 3.9927092 1.9890638 6 5 C4.02 5 2.04 5 0 5 C-0.33 4.01 -0.66 3.02 -1 2 C-0.67 1.34 -0.34 0.68 0 0 Z " fill="#0A1525" transform="translate(841,220)"/>
<path d="M0 0 C1.32 0 2.64 0 4 0 C3.67 1.65 3.34 3.3 3 5 C1.68 4.34 0.36 3.68 -1 3 C-0.67 2.01 -0.34 1.02 0 0 Z " fill="#0A182B" transform="translate(596,212)"/>
<path d="M0 0 C2.125 0.9375 2.125 0.9375 4 2 C2.68 2 1.36 2 0 2 C-0.28875 2.804375 -0.5775 3.60875 -0.875 4.4375 C-2 7 -2 7 -4 8 C-3.40138258 5.64828869 -2.73075648 3.3140622 -2 1 C-1.34 0.67 -0.68 0.34 0 0 Z " fill="#0F1C29" transform="translate(795,198)"/>
<path d="M0 0 C1.125 1.75 1.125 1.75 2 4 C1.125 6.25 1.125 6.25 0 8 C-2 5 -2 5 -1.6875 2.875 C-1 1 -1 1 0 0 Z " fill="#121E2D" transform="translate(570,586)"/>
<path d="M0 0 C0.99 0.66 1.98 1.32 3 2 C3 2.66 3 3.32 3 4 C2.01 4.33 1.02 4.66 0 5 C-2.1875 3.5625 -2.1875 3.5625 -4 2 C-2.68 1.34 -1.36 0.68 0 0 Z " fill="#0D192B" transform="translate(887,549)"/>
<path d="M0 0 C1.98 0.99 1.98 0.99 4 2 C4 2.99 4 3.98 4 5 C3.01 5.33 2.02 5.66 1 6 C0.67 4.02 0.34 2.04 0 0 Z " fill="#0C1421" transform="translate(526,549)"/>
<path d="M0 0 C2.88437779 1.29299694 4.87219421 2.65941363 7 5 C6.01 5.495 6.01 5.495 5 6 C4.34 5.67 3.68 5.34 3 5 C2.67 5.66 2.34 6.32 2 7 C1.34 4.69 0.68 2.38 0 0 Z " fill="#18202A" transform="translate(760,420)"/>
<path d="M0 0 C0.66 0 1.32 0 2 0 C2 0.66 2 1.32 2 2 C4.31 2.33 6.62 2.66 9 3 C9 3.33 9 3.66 9 4 C6.03 4 3.06 4 0 4 C-0.33 3.34 -0.66 2.68 -1 2 C-0.67 1.34 -0.34 0.68 0 0 Z " fill="#051328" transform="translate(733,420)"/>
<path d="M0 0 C2.97 0 5.94 0 9 0 C8.01 0.495 8.01 0.495 7 1 C7 1.66 7 2.32 7 3 C4.0625 2.625 4.0625 2.625 1 2 C0.67 1.34 0.34 0.68 0 0 Z " fill="#10182B" transform="translate(745,400)"/>
<path d="M0 0 C0.99 0 1.98 0 3 0 C3.33 1.65 3.66 3.3 4 5 C2.35 5 0.7 5 -1 5 C-0.67 3.35 -0.34 1.7 0 0 Z " fill="#08162A" transform="translate(665,275)"/>
<path d="M0 0 C2.64 0 5.28 0 8 0 C5.3144406 2.6855594 2.62378672 3.06049974 -1 4 C-0.67 2.68 -0.34 1.36 0 0 Z " fill="#0F182C" transform="translate(737,232)"/>
<path d="M0 0 C1.32 0.33 2.64 0.66 4 1 C3.01 1.66 2.02 2.32 1 3 C0.27034634 5.56282742 0.27034634 5.56282742 0 8 C-0.66 7.67 -1.32 7.34 -2 7 C-1.125 2.25 -1.125 2.25 0 0 Z " fill="#D2DBDE" transform="translate(795,200)"/>
<path d="M0 0 C2.31 0.33 4.62 0.66 7 1 C7 1.66 7 2.32 7 3 C4.69 2.67 2.38 2.34 0 2 C0 1.34 0 0.68 0 0 Z " fill="#0F1A2B" transform="translate(447,566)"/>
<path d="M0 0 C0.99 0.99 1.98 1.98 3 3 C2.34 4.32 1.68 5.64 1 7 C0.34 7 -0.32 7 -1 7 C-1.04254356 5.00045254 -1.04080783 2.99958364 -1 1 C-0.67 0.67 -0.34 0.34 0 0 Z " fill="#091627" transform="translate(721,553)"/>
<path d="M0 0 C1.9375 0.75 1.9375 0.75 4 2 C4.75 4.125 4.75 4.125 5 6 C4.01 6.495 4.01 6.495 3 7 C1.68 5.02 0.36 3.04 -1 1 C-0.67 0.67 -0.34 0.34 0 0 Z " fill="#08192E" transform="translate(774,550)"/>
<path d="M0 0 C0.66 0 1.32 0 2 0 C2 2.31 2 4.62 2 7 C1.01 7 0.02 7 -1 7 C-0.67 4.69 -0.34 2.38 0 0 Z " fill="#0E1B30" transform="translate(689,545)"/>
<path d="M0 0 C0.66 0 1.32 0 2 0 C2 0.66 2 1.32 2 2 C3.65 2 5.3 2 7 2 C6.67 2.66 6.34 3.32 6 4 C3.69 3.67 1.38 3.34 -1 3 C-0.67 2.01 -0.34 1.02 0 0 Z " fill="#293441" transform="translate(647,498)"/>
<path d="M0 0 C1.33332095 2.6666419 0.67102033 4.16680303 0 7 C-1.32 7 -2.64 7 -4 7 C-3.67 5.68 -3.34 4.36 -3 3 C-2.34 3 -1.68 3 -1 3 C-0.67 2.01 -0.34 1.02 0 0 Z " fill="#09192E" transform="translate(599,409)"/>
<path d="M0 0 C0.66 0 1.32 0 2 0 C2 0.99 2 1.98 2 3 C3.32 3.33 4.64 3.66 6 4 C2.37673261 5.2077558 1.35853631 4.54311128 -2 3 C-1.34 2.01 -0.68 1.02 0 0 Z " fill="#202C39" transform="translate(734,393)"/>
<path d="M0 0 C2.475 0.495 2.475 0.495 5 1 C5 2.65 5 4.3 5 6 C3.0625 5.25 3.0625 5.25 1 4 C0.25 1.875 0.25 1.875 0 0 Z " fill="#0E1729" transform="translate(587,318)"/>
</svg>
